<?xml version="1.0" encoding="UTF-8" standalone="no"?>
<!-- Created with Inkscape (http://www.inkscape.org/) -->

<svg
   version="1.1"
   id="svg2"
   width="666.66669"
   height="666.66669"
   viewBox="0 0 666.66669 666.66669"
   sodipodi:docname="3515941.eps"
   xmlns:inkscape="http://www.inkscape.org/namespaces/inkscape"
   xmlns:sodipodi="http://sodipodi.sourceforge.net/DTD/sodipodi-0.dtd"
   xmlns="http://www.w3.org/2000/svg"
   xmlns:svg="http://www.w3.org/2000/svg">
  <defs
     id="defs6" />
  <sodipodi:namedview
     id="namedview4"
     pagecolor="#ffffff"
     bordercolor="#000000"
     borderopacity="0.25"
     inkscape:showpageshadow="2"
     inkscape:pageopacity="0.0"
     inkscape:pagecheckerboard="0"
     inkscape:deskcolor="#d1d1d1" />
  <g
     id="g8"
     inkscape:groupmode="layer"
     inkscape:label="ink_ext_XXXXXX"
     transform="matrix(1.3333333,0,0,-1.3333333,0,666.66667)">
    <g
       id="g10"
       transform="scale(0.1)">
      <path
         d="M 0,0 H 5000 V 5000 H 0 Z"
         style="fill:transparent;fill-opacity:1;fill-rule:nonzero;stroke:none"
         id="path12" />
      <path
         d="m 3638.21,703.309 c 0,-18.098 -505.06,-178.668 -1128.09,-178.668 -623.03,0 -1128.09,160.57 -1128.09,178.668 0,18.101 505.06,32.773 1128.09,32.773 623.03,0 1128.09,-14.672 1128.09,-32.773"
         style="fill:#e3d9fa;fill-opacity:1;fill-rule:nonzero;stroke:none"
         id="path14" />
      <path
         d="m 3074.17,719.699 c 0,-9.058 -252.54,-89.34 -564.05,-89.34 -311.51,0 -564.05,80.282 -564.05,89.34 0,9.051 252.54,16.383 564.05,16.383 311.51,0 564.05,-7.332 564.05,-16.383"
         style="fill:#b5a4e4;fill-opacity:1;fill-rule:nonzero;stroke:none"
         id="path16" />
      <path
         d="m 2005.28,1910.86 -732.14,-154.11 c -68.78,-14.47 -136.27,29.54 -150.75,98.33 L 798.48,3393.87 c -14.476,68.78 29.547,136.27 98.325,150.75 l 732.145,154.11 c 68.78,14.48 136.27,-29.54 150.75,-98.32 l 323.9,-1538.8 c 14.48,-68.78 -29.54,-136.28 -98.32,-150.75"
         style="fill:#5e4a8a;fill-opacity:1;fill-rule:nonzero;stroke:none"
         id="path18" />
      <path
         d="M 1169.2,1907.65 862.523,3364.62 c -7.828,37.19 15.973,73.68 53.161,81.5 l 735.696,154.86 c 37.18,7.83 73.68,-15.97 81.51,-53.16 l 306.67,-1456.96 c 7.83,-37.19 -15.97,-73.68 -53.15,-81.5 L 1250.7,1854.49 c -37.18,-7.82 -73.67,15.97 -81.5,53.16"
         style="fill:#e3d9fa;fill-opacity:1;fill-rule:nonzero;stroke:none"
         id="path20" />
      <path
         d="m 1169.6,3125.19 c -2.94,0.85 -5.41,2.47 -7.41,4.88 -1.99,2.4 -3.41,5.5 -4.27,9.3 l -2.99,13.36 c -0.85,3.8 -0.89,7.2 -0.12,10.23 0.78,3.02 2.31,5.56 4.61,7.59 2.29,2.05 5.26,3.47 8.88,4.28 2.98,0.67 5.83,0.64 8.51,-0.1 2.7,-0.75 5.1,-2.17 7.22,-4.25 2.12,-2.08 3.85,-4.76 5.19,-8.01 l -8.91,-2.01 c -0.73,1.5 -1.63,2.74 -2.7,3.71 -1.05,0.98 -2.22,1.63 -3.48,2 -1.26,0.35 -2.57,0.4 -3.91,0.1 -1.78,-0.41 -3.23,-1.13 -4.34,-2.19 -1.09,-1.06 -1.82,-2.38 -2.17,-3.98 -0.37,-1.59 -0.33,-3.39 0.12,-5.37 l 3,-13.37 c 0.45,-1.98 1.17,-3.62 2.17,-4.9 1.01,-1.29 2.24,-2.16 3.68,-2.65 1.44,-0.47 3.06,-0.5 4.84,-0.1 1.37,0.3 2.55,0.87 3.55,1.72 1.01,0.86 1.78,1.94 2.32,3.26 0.53,1.33 0.79,2.85 0.78,4.56 l 8.92,2 c 0.16,-3.53 -0.28,-6.69 -1.3,-9.48 -1.03,-2.78 -2.6,-5.08 -4.71,-6.9 -2.09,-1.82 -4.64,-3.07 -7.63,-3.74 -3.62,-0.82 -6.91,-0.79 -9.85,0.06"
         style="fill:#5e4a8a;fill-opacity:1;fill-rule:nonzero;stroke:none"
         id="path22" />
      <path
         d="m 1214.24,3151.08 25.63,5.75 1.85,-8.27 -25.62,-5.75 z m 2.52,34.1 5.83,1.31 29.38,-44.57 -9.28,-2.08 -19.87,31.99 -4.3,-37.41 -9.29,-2.08 7.53,52.84"
         style="fill:#5e4a8a;fill-opacity:1;fill-rule:nonzero;stroke:none"
         id="path24" />
      <path
         d="m 1275.24,3147.37 c -2.3,-0.04 -4.51,0.18 -6.63,0.65 -2.13,0.47 -4.09,1.16 -5.93,2.12 l 2.69,7.95 c 2.22,-1.14 4.62,-1.86 7.22,-2.15 2.58,-0.28 5.17,-0.13 7.76,0.46 3.12,0.69 5.42,1.76 6.9,3.24 1.48,1.47 1.99,3.2 1.55,5.19 l -0.01,0.03 c -0.32,1.4 -0.95,2.43 -1.91,3.07 -0.95,0.64 -2.09,1.01 -3.41,1.12 -1.33,0.1 -3,0.09 -5.01,-0.03 l -0.19,-0.01 -0.19,-0.01 -0.69,-0.06 c -3.38,-0.19 -6.22,-0.16 -8.51,0.12 -2.29,0.27 -4.39,1.21 -6.3,2.79 -1.92,1.59 -3.27,4.16 -4.06,7.68 l -0.01,0.04 c -0.7,3.1 -0.6,5.9 0.3,8.43 0.9,2.53 2.55,4.66 4.95,6.42 2.4,1.76 5.47,3.05 9.22,3.9 1.74,0.39 3.55,0.58 5.43,0.59 1.88,0 3.76,-0.19 5.64,-0.55 1.89,-0.37 3.74,-0.92 5.55,-1.66 l -2.27,-8.08 c -2.17,0.9 -4.34,1.48 -6.48,1.73 -2.14,0.27 -4.16,0.19 -6.03,-0.23 -2.94,-0.66 -5.1,-1.7 -6.49,-3.08 -1.38,-1.38 -1.85,-3.02 -1.44,-4.86 l 0.01,-0.04 c 0.33,-1.48 1.01,-2.54 2.04,-3.2 1.03,-0.66 2.2,-1.06 3.53,-1.18 1.33,-0.12 3.16,-0.14 5.49,-0.07 l 0.27,0.02 h 0.29 0.4 l 0.41,0.02 c 3.17,0.07 5.87,-0.08 8.11,-0.48 2.23,-0.39 4.24,-1.39 6.05,-2.97 1.79,-1.59 3.05,-4.02 3.8,-7.31 l 0.01,-0.07 c 0.69,-3.05 0.56,-5.84 -0.4,-8.35 -0.94,-2.51 -2.66,-4.64 -5.15,-6.42 -2.49,-1.75 -5.67,-3.09 -9.56,-3.96 -2.33,-0.52 -4.63,-0.78 -6.95,-0.8"
         style="fill:#5e4a8a;fill-opacity:1;fill-rule:nonzero;stroke:none"
         id="path26" />
      <path
         d="m 1334.75,3211.65 8.61,1.93 10.92,-48.7 -8.62,-1.94 z m -18.06,-25.54 28.03,6.29 1.86,-8.28 -28.03,-6.3 z m -8.84,19.51 8.61,1.92 10.93,-48.69 -8.62,-1.94 -10.92,48.71"
         style="fill:#5e4a8a;fill-opacity:1;fill-rule:nonzero;stroke:none"
         id="path28" />
      <path
         d="m 1377.1,3178.64 14.98,3.37 c 2.43,0.54 4.16,1.5 5.16,2.87 1.01,1.35 1.29,3.03 0.85,4.99 l -0.02,0.1 c -0.31,1.34 -0.83,2.43 -1.56,3.27 -0.74,0.82 -1.69,1.37 -2.85,1.63 -1.16,0.28 -2.5,0.24 -4.02,-0.11 l -15.37,-3.45 -1.83,8.18 15.36,3.45 c 2.06,0.46 3.52,1.32 4.39,2.58 0.86,1.26 1.09,2.83 0.67,4.71 -0.41,1.78 -1.28,3.01 -2.61,3.72 -1.34,0.69 -3.09,0.81 -5.24,0.32 l -15.13,-3.4 -1.85,8.24 15.68,3.52 c 3.14,0.71 5.94,0.79 8.38,0.23 2.45,-0.56 4.46,-1.68 6.03,-3.4 1.57,-1.7 2.66,-3.95 3.28,-6.72 0.42,-1.86 0.43,-3.59 0.02,-5.22 -0.39,-1.62 -1.18,-3.08 -2.36,-4.33 -1.18,-1.28 -2.74,-2.32 -4.68,-3.1 2.18,0.18 4.14,-0.09 5.87,-0.79 1.74,-0.69 3.18,-1.77 4.33,-3.23 1.15,-1.45 1.95,-3.23 2.42,-5.32 l 0.02,-0.11 c 0.62,-2.75 0.56,-5.25 -0.15,-7.52 -0.73,-2.25 -2.08,-4.16 -4.07,-5.7 -1.99,-1.54 -4.52,-2.67 -7.6,-3.36 l -16.24,-3.65 z m -13.09,39.58 8.61,1.92 10.92,-48.7 -8.6,-1.92 -10.93,48.7"
         style="fill:#5e4a8a;fill-opacity:1;fill-rule:nonzero;stroke:none"
         id="path30" />
      <path
         d="m 1429.14,3199.29 25.62,5.75 1.86,-8.26 -25.62,-5.76 z m 2.52,34.1 5.83,1.31 29.37,-44.56 -9.27,-2.08 -19.88,31.97 -4.3,-37.4 -9.28,-2.08 7.53,52.84"
         style="fill:#5e4a8a;fill-opacity:1;fill-rule:nonzero;stroke:none"
         id="path32" />
      <path
         d="m 1488.54,3196.74 c -2.95,0.85 -5.41,2.47 -7.42,4.88 -1.98,2.4 -3.41,5.5 -4.25,9.29 l -3,13.37 c -0.86,3.81 -0.9,7.2 -0.12,10.23 0.78,3.02 2.32,5.56 4.61,7.59 2.3,2.05 5.26,3.47 8.88,4.28 2.98,0.67 5.83,0.63 8.51,-0.1 2.69,-0.74 5.1,-2.16 7.22,-4.25 2.13,-2.08 3.85,-4.76 5.19,-8.02 l -8.91,-1.99 c -0.73,1.5 -1.64,2.74 -2.69,3.7 -1.07,0.97 -2.23,1.63 -3.49,2 -1.27,0.36 -2.57,0.4 -3.91,0.1 -1.79,-0.4 -3.24,-1.14 -4.33,-2.19 -1.1,-1.06 -1.83,-2.38 -2.18,-3.98 -0.36,-1.59 -0.32,-3.38 0.12,-5.38 l 3,-13.36 c 0.44,-1.98 1.17,-3.62 2.18,-4.91 1,-1.29 2.22,-2.15 3.67,-2.64 1.44,-0.47 3.06,-0.5 4.84,-0.1 1.36,0.31 2.55,0.88 3.56,1.73 1,0.85 1.77,1.93 2.31,3.25 0.52,1.33 0.8,2.84 0.79,4.56 l 8.9,2 c 0.16,-3.53 -0.27,-6.68 -1.3,-9.48 -1.03,-2.78 -2.59,-5.08 -4.7,-6.9 -2.09,-1.82 -4.65,-3.08 -7.63,-3.75 -3.62,-0.81 -6.91,-0.78 -9.85,0.07"
         style="fill:#5e4a8a;fill-opacity:1;fill-rule:nonzero;stroke:none"
         id="path34" />
      <path
         d="m 1541.86,3233.21 6.19,6.63 24.13,-26.08 -10.27,-2.3 z m -6.89,-7.21 13.46,33.59 10.79,2.42 -21.03,-47.39 z m -12.02,27.87 8.6,1.93 10.93,-48.7 -8.61,-1.93 -10.92,48.7"
         style="fill:#5e4a8a;fill-opacity:1;fill-rule:nonzero;stroke:none"
         id="path36" />
      <path
         d="m 1316.19,2389.66 c -7.81,0 -14.85,5.42 -16.58,13.37 -2.01,9.17 3.8,18.22 12.96,20.23 l 451.33,98.78 c 1.22,0.26 2.44,0.39 3.65,0.39 7.81,0 14.84,-5.42 16.58,-13.36 2.01,-9.17 -3.8,-18.23 -12.97,-20.24 l -451.32,-98.77 c -1.23,-0.27 -2.45,-0.4 -3.65,-0.4"
         style="fill:#c4b0e9;fill-opacity:1;fill-rule:nonzero;stroke:none"
         id="path38" />
      <path
         d="m 1423.39,2326.77 c -7.81,0 -14.85,5.42 -16.59,13.37 -2,9.16 3.8,18.22 12.97,20.23 l 287.4,62.89 c 1.22,0.27 2.44,0.4 3.65,0.4 7.81,0 14.84,-5.42 16.58,-13.37 2.01,-9.16 -3.8,-18.22 -12.97,-20.23 l -287.39,-62.89 c -1.23,-0.27 -2.45,-0.4 -3.65,-0.4"
         style="fill:#c4b0e9;fill-opacity:1;fill-rule:nonzero;stroke:none"
         id="path40" />
      <path
         d="m 1697.92,2210.27 c 6.6,-51.49 -29.79,-98.59 -81.29,-105.19 -51.5,-6.59 -98.59,29.8 -105.19,81.3 -6.6,51.49 29.8,98.59 81.29,105.18 51.5,6.6 98.6,-29.79 105.19,-81.29"
         style="fill:#6cbec3;fill-opacity:1;fill-rule:nonzero;stroke:none"
         id="path42" />
      <path
         d="m 1560.53,2189.68 31.28,-24.17 c 2.36,-1.83 5.41,-2.65 8.37,-2.27 2.95,0.37 5.69,1.94 7.52,4.31 l 39.61,51.25 c 3.83,4.96 2.92,12.07 -2.03,15.9 -4.95,3.82 -12.07,2.91 -15.89,-2.04 l -32.69,-42.3 -22.31,17.25 c -4.95,3.82 -12.07,2.91 -15.89,-2.04 -3.83,-4.95 -2.92,-12.07 2.03,-15.89"
         style="fill:#ffffff;fill-opacity:1;fill-rule:nonzero;stroke:none"
         id="path44" />
      <path
         d="m 1177.37,3540.68 c -6.59,0 -11.94,5.35 -11.94,11.93 0,6.59 5.35,11.94 11.94,11.94 6.58,0 11.93,-5.35 11.93,-11.94 0,-6.58 -5.35,-11.93 -11.93,-11.93"
         style="fill:#34294c;fill-opacity:1;fill-rule:nonzero;stroke:none"
         id="path46" />
      <path
         d="m 1219.78,3554.3 c -2.58,0 -4.92,1.78 -5.51,4.41 -0.7,3.05 1.22,6.09 4.27,6.78 l 165.83,37.6 c 0.42,0.1 0.84,0.14 1.26,0.14 2.59,0 4.92,-1.78 5.52,-4.41 0.69,-3.05 -1.22,-6.08 -4.27,-6.78 l -165.84,-37.6 c -0.42,-0.09 -0.84,-0.14 -1.26,-0.14"
         style="fill:#34294c;fill-opacity:1;fill-rule:nonzero;stroke:none"
         id="path48" />
      <path
         d="m 2446.91,803.711 c -0.34,-47.121 -3.74,-92.672 -3.74,-92.672 h -57.89 l -10.08,47.02 c 0,0 -37.62,-32.629 -78.17,-39.09 -38.86,-6.231 -159.29,-15.168 -162.8,2.051 l 0.12,2.261 c 6.57,20.27 190.21,127.34 211.96,169.93 l 48.37,3.629 c 0,0 21.75,34.781 41.24,5.09 9.17,-13.93 11.33,-56.641 10.99,-98.219"
         style="fill:#dc4281;fill-opacity:1;fill-rule:nonzero;stroke:none"
         id="path50" />
      <path
         d="m 2727.98,718.969 c -40.45,6.461 -78.06,39.09 -78.06,39.09 l -10.09,-47.02 h -57.89 c 0,0 -3.4,44.871 -3.84,91.66 -0.35,41.801 1.8,85.192 11.1,99.231 19.48,29.691 41.23,-5.09 41.23,-5.09 l 49.51,12.012 c 19.71,-38.641 170.84,-142.52 204.37,-177.071 3.63,-3.742 5.78,-6.57 6.46,-8.5 6.46,-20.16 -122.23,-10.761 -162.79,-4.312"
         style="fill:#dc4281;fill-opacity:1;fill-rule:nonzero;stroke:none"
         id="path52" />
      <path
         d="m 2493.02,1464.98 c -7.6,-218.65 -51.44,-548.32 -57.1,-563.05 -7.25,-18.809 -81,-14.5 -88.25,-13.02 -6.57,1.352 -40.67,428.11 -59.82,660.02 -1.92,23.22 -3.63,44.4 -5.21,63.09 l 65.03,69.45 c 0,0 118.61,89.61 141.72,-69.45 4.98,-34.43 5.66,-86.55 3.63,-147.04"
         style="fill:#edb9c0;fill-opacity:1;fill-rule:nonzero;stroke:none"
         id="path54" />
      <path
         d="m 2489.39,1612.02 c 4.98,-34.43 5.66,-86.55 3.63,-147.04 -1.82,3.73 -3.86,7.59 -6.01,11.55 -42.37,77.72 -126.09,85.08 -199.16,72.4 -1.92,23.22 -3.63,44.4 -5.21,63.09 l 65.03,69.45 c 0,0 118.61,89.61 141.72,-69.45"
         style="fill:#d8939f;fill-opacity:1;fill-rule:nonzero;stroke:none"
         id="path56" />
      <path
         d="m 2683.22,901.93 c -7.24,-18.809 -80.99,-14.5 -88.25,-13.02 -5.55,1.129 -30.69,305.88 -49.96,540.27 -5.77,70.8 -10.99,135.26 -15.06,182.84 l 65.02,69.45 c 0,0 118.61,89.61 141.73,-69.45 2.83,-19.36 4.31,-44.18 4.64,-72.96 2.61,-207.88 -51.77,-620.58 -58.12,-637.13"
         style="fill:#edb9c0;fill-opacity:1;fill-rule:nonzero;stroke:none"
         id="path58" />
      <path
         d="m 2741.34,1539.06 c -4.19,1.7 -8.72,3.74 -13.25,5.9 -102.76,48.71 -156.91,-41.12 -183.08,-115.78 -5.77,70.8 -10.99,135.26 -15.06,182.84 l 65.02,69.45 c 0,0 118.61,89.61 141.73,-69.45 2.83,-19.36 4.31,-44.18 4.64,-72.96"
         style="fill:#d8939f;fill-opacity:1;fill-rule:nonzero;stroke:none"
         id="path60" />
      <path
         d="m 1696.04,2821.48 c 0,-44.74 -10.54,-87 -29.35,-124.38 -45.54,-91.2 -139.8,-153.74 -248.66,-153.74 -98.34,0 -184.89,51.1 -234.28,128.36 -4.54,7.02 -8.73,14.39 -12.69,21.98 -6.12,11.78 -11.44,24.13 -15.75,36.81 -6.91,19.94 -11.67,40.9 -13.82,62.54 -1.02,9.4 -1.47,18.81 -1.47,28.43 0,153.51 124.5,278.01 278.01,278.01 68.99,0 132.09,-25.14 180.8,-66.95 16.2,-13.82 30.82,-29.57 43.51,-46.9 7.93,-10.65 15.06,-21.98 21.29,-33.87 3.97,-7.48 7.6,-15.07 10.88,-23 12.46,-29.68 19.94,-62.08 21.3,-95.96 0.11,-3.73 0.23,-7.47 0.23,-11.33"
         style="fill:#edba95;fill-opacity:1;fill-rule:nonzero;stroke:none"
         id="path62" />
      <path
         d="m 1602.35,2821.44 c 0,-101.8 -82.53,-184.33 -184.32,-184.33 -101.8,0 -184.32,82.53 -184.32,184.33 0,101.79 82.52,184.32 184.32,184.32 101.79,0 184.32,-82.53 184.32,-184.32"
         style="fill:#e4887a;fill-opacity:1;fill-rule:nonzero;stroke:none"
         id="path64" />
      <path
         d="m 1409.53,2756.34 v -23.67 h 20.05 v 23.67 h -20.05 m 0,153.96 v -22.43 h 20.05 v 22.43 h -20.05 m 51.43,-97.99 c -0.79,1.24 -1.59,2.38 -2.38,3.4 -2.94,3.73 -6.57,6.57 -10.53,8.38 -4.65,2.27 -10.54,4.08 -17.22,5.67 l -2.27,0.56 -0.9,0.23 -0.91,0.23 -0.9,0.22 -0.8,0.11 c -6.57,1.48 -11.67,2.84 -15.52,4.2 -3.74,1.24 -6.8,3.28 -9.29,6.12 -2.49,2.83 -3.74,6.68 -3.74,11.55 v 0.11 c 0,1.36 0.12,2.72 0.34,3.97 0.57,5.21 2.61,9.18 6.12,12.12 4.31,3.51 10.76,5.32 19.49,5.32 2.15,0 4.42,-0.22 6.68,-0.56 h 0.11 c 2.27,-0.45 4.65,-1.02 6.91,-1.82 4.53,-1.69 9.29,-4.07 14.16,-7.36 l 12.13,16.66 c -3.07,1.92 -6.12,3.73 -9.18,5.21 -1.36,0.67 -2.61,1.35 -3.97,1.92 -4.41,1.93 -8.83,3.4 -13.25,4.31 -2.15,0.45 -4.31,0.79 -6.46,1.02 -2.38,0.33 -4.76,0.45 -7.13,0.45 -4.65,0 -8.95,-0.34 -12.92,-1.02 -4.98,-0.68 -9.29,-2.04 -13.14,-3.74 -6.91,-3.17 -12.12,-7.93 -15.52,-14.27 -3.51,-6.35 -5.21,-14.28 -5.21,-23.79 v -0.12 c 0,-1.81 0.11,-3.62 0.22,-5.32 0.57,-7.36 2.38,-13.15 5.55,-17.45 3.86,-5.32 8.5,-8.95 13.94,-10.99 2.27,-0.79 4.76,-1.7 7.59,-2.38 3.96,-1.13 8.61,-2.15 13.71,-3.17 l 1.02,-0.22 1.13,-0.12 0.45,-0.11 0.57,-0.11 c 5.55,-1.02 9.97,-2.27 13.59,-3.63 1.81,-0.68 3.52,-1.59 4.99,-2.83 1.36,-0.91 2.61,-2.04 3.63,-3.4 2.26,-2.72 3.39,-6.46 3.39,-11.22 0,-7.47 -2.38,-13.02 -6.91,-16.65 -4.64,-3.62 -11.55,-5.44 -20.84,-5.44 -6.8,0 -13.03,1.47 -18.7,4.31 -3.39,1.7 -6.68,3.85 -9.74,6.68 -2.04,1.81 -4.07,3.85 -6,6.12 l -13.26,-16.2 -0.11,-0.11 c 4.31,-4.54 8.95,-8.39 13.82,-11.44 4.99,-3.07 10.31,-5.33 15.97,-6.92 5.67,-1.47 8.5,-2.26 8.5,-2.26 0,0 0.45,0 1.36,0 h 8.16 c 4.19,0 8.16,0.23 11.89,0.79 5.66,0.68 10.77,1.92 15.07,3.74 7.14,3.06 12.58,7.7 16.2,13.82 3.51,6.12 5.32,13.82 5.32,23 v 0.22 c 0,9.41 -1.7,16.77 -5.21,22.21"
         style="fill:#edba95;fill-opacity:1;fill-rule:nonzero;stroke:none"
         id="path66" />
      <path
         d="m 1155.31,2730.51 v 0 c -6.91,19.94 -11.67,40.9 -13.82,62.54 l 93.34,48.82 c -0.74,-6.71 -1.12,-13.53 -1.12,-20.43 0,-16.16 2.07,-31.83 5.98,-46.76 l -84.38,-44.17 m 402.62,210.94 c -14.67,17.08 -32.42,31.45 -52.37,42.24 l 0.04,0.02 h 0.11 l 93.12,48.83 c 16.2,-13.82 30.82,-29.57 43.51,-46.9 l -84.4,-44.18 -0.01,-0.01"
         style="fill:#f2cbb0;fill-opacity:1;fill-rule:nonzero;stroke:none"
         id="path68" />
      <path
         d="m 1239.69,2774.68 c -3.91,14.93 -5.98,30.6 -5.98,46.76 0,6.9 0.38,13.72 1.12,20.43 l 0.01,0.01 270.72,141.81 c 19.95,-10.79 37.7,-25.16 52.37,-42.24 l -104.67,-54.82 v 0 c -1.36,0.67 -2.61,1.35 -3.97,1.92 -4.41,1.93 -8.83,3.4 -13.25,4.31 -2.15,0.45 -4.31,0.79 -6.46,1.02 v 0 16.42 h -20.05 v -16.99 c -4.98,-0.68 -9.29,-2.04 -13.14,-3.74 -6.91,-3.17 -12.12,-7.93 -15.52,-14.27 -3.51,-6.35 -5.21,-14.28 -5.21,-23.79 v -0.12 c 0,-1.81 0.11,-3.62 0.22,-5.32 v 0 l -136.17,-71.37 -0.02,-0.02 m 157.15,82.38 v 0 c 0.57,5.21 2.61,9.18 6.12,12.12 4.31,3.51 10.76,5.32 19.49,5.32 2.15,0 4.42,-0.22 6.68,-0.56 h 0.11 v 0 h -0.11 l -32.29,-16.88"
         style="fill:#eba699;fill-opacity:1;fill-rule:nonzero;stroke:none"
         id="path70" />
      <path
         d="m 1375.88,2846.07 v 0 c -0.11,1.7 -0.22,3.51 -0.22,5.32 v 0.12 c 0,9.51 1.7,17.44 5.21,23.79 3.4,6.34 8.61,11.1 15.52,14.27 3.85,1.7 8.16,3.06 13.14,3.74 v 16.99 h 20.05 v -16.42 0 c 2.15,-0.23 4.31,-0.57 6.46,-1.02 4.42,-0.91 8.84,-2.38 13.25,-4.31 1.36,-0.57 2.61,-1.25 3.97,-1.92 v 0 l -24.02,-12.69 v 0 h -0.11 c -2.26,0.34 -4.53,0.56 -6.68,0.56 -8.73,0 -15.18,-1.81 -19.49,-5.32 -3.51,-2.94 -5.55,-6.91 -6.12,-12.12 v 0 l -20.96,-10.99"
         style="fill:#f2cbb0;fill-opacity:1;fill-rule:nonzero;stroke:none"
         id="path72" />
      <path
         d="m 1183.75,2671.72 v 0 c -4.54,7.02 -8.73,14.39 -12.69,21.98 l 82.99,43.47 c 3.89,-7.56 8.3,-14.83 13.17,-21.73 l -83.47,-43.72 m 407.32,213.35 c -2.94,7.99 -6.43,15.74 -10.4,23.17 l 0.04,0.02 82.92,43.51 c 3.97,-7.48 7.6,-15.07 10.88,-23 l -83.44,-43.7"
         style="fill:#f2cbb0;fill-opacity:1;fill-rule:nonzero;stroke:none"
         id="path74" />
      <path
         d="m 1267.22,2715.44 c -4.87,6.9 -9.28,14.17 -13.17,21.73 l 0.05,0.03 148.86,78.05 c 3.96,-1.13 8.61,-2.15 13.71,-3.17 l 1.02,-0.22 1.13,-0.12 0.45,-0.11 0.57,-0.11 c 5.55,-1.02 9.97,-2.27 13.59,-3.63 1.81,-0.68 3.52,-1.59 4.99,-2.83 v 0 l -49.17,-25.72 v 0 c -2.04,1.81 -4.07,3.85 -6,6.12 l -13.26,-16.2 -0.11,-0.11 v 0 l -102.64,-53.7 -0.02,-0.01 m 191.36,100.27 v 0 c -2.94,3.73 -6.57,6.57 -10.53,8.38 -4.65,2.27 -10.54,4.08 -17.22,5.67 l 149.84,78.48 c 3.97,-7.43 7.46,-15.18 10.4,-23.17 l -0.05,-0.03 -132.44,-69.33"
         style="fill:#eba699;fill-opacity:1;fill-rule:nonzero;stroke:none"
         id="path76" />
      <path
         d="m 1369.88,2769.15 v 0 l 0.11,0.11 13.26,16.2 c 1.93,-2.27 3.96,-4.31 6,-6.12 v 0 l -19.26,-10.08 -0.11,-0.11 m 68.54,35.91 v 0 c -1.47,1.24 -3.18,2.15 -4.99,2.83 -3.62,1.36 -8.04,2.61 -13.59,3.63 l -0.57,0.11 -0.45,0.11 -1.13,0.12 -1.02,0.22 c -5.1,1.02 -9.75,2.04 -13.71,3.17 l 27.87,14.51 c 6.68,-1.59 12.57,-3.4 17.22,-5.67 3.96,-1.81 7.59,-4.65 10.53,-8.38 v 0 l -20.16,-10.65"
         style="fill:#f2cbb0;fill-opacity:1;fill-rule:nonzero;stroke:none"
         id="path78" />
      <path
         d="m 2355.26,2923.78 -41.01,-125.86 c 0,0 -18.47,-23.79 -44.75,-58 -28.55,-37.27 -66.5,-86.89 -99.7,-131.41 -63.66,-85.31 -107.05,-112.84 -183.3,-72.4 -76.35,40.56 -261.35,193.84 -261.35,193.84 l -8.61,1.13 -33.42,4.65 13.03,62.87 c 0,0 -7.25,23.23 -15.86,30.48 -8.73,7.13 -28.21,28.88 -26.74,40.44 l 0.57,2.04 c 3.06,7.14 17.22,-7.48 33.42,-12.12 17.33,-5.1 59.93,-60.05 72.27,-67.3 12.24,-7.25 289.91,-132.32 289.91,-132.32 0,0 4.3,7.26 12.01,19.83 35.12,57.78 139.91,226.91 208.11,307.35 20.96,24.69 38.51,41.01 49.62,43.16 l 35.8,-106.38"
         style="fill:#edb9c0;fill-opacity:1;fill-rule:nonzero;stroke:none"
         id="path80" />
      <path
         d="m 2355.26,2923.78 -41.01,-125.86 c 0,0 -18.47,-23.79 -44.75,-58 8.61,108.64 12.12,177.29 0.34,247.08 20.96,24.69 38.51,41.01 49.62,43.16 l 35.8,-106.38"
         style="fill:#d8939f;fill-opacity:1;fill-rule:nonzero;stroke:none"
         id="path82" />
      <path
         d="m 2847.04,2863.17 c -1.13,1.37 -12.46,13.71 -30.14,31.39 -46.67,46.56 -137.42,129.48 -198.81,135.6 -61.98,6.12 -186.14,-7.82 -250.03,-7.93 -24.47,0 -40.11,1.93 -40.11,7.93 0,21.52 59.71,75.79 45.32,113.4 -14.5,37.62 -60.72,148.52 -67.52,215.02 -6.79,66.5 26.06,156.22 110.91,138.9 0,0 6.68,79.98 124.38,72.27 117.6,-7.7 138.78,-162.9 173.57,-208.22 34.66,-45.31 -24.13,-139.91 3.85,-192.93 27.87,-53.02 119.52,-79.98 111.81,-153.28 -7.48,-71.48 15.76,-148.41 16.77,-152.15"
         style="fill:#3e3551;fill-opacity:1;fill-rule:nonzero;stroke:none"
         id="path84" />
      <path
         d="m 2816.9,2894.56 c -46.67,46.56 -137.42,129.48 -198.81,135.6 -61.98,6.12 -186.14,-7.82 -250.03,-7.93 l -4.42,7.93 c 37.84,27.53 32.85,96.07 32.85,96.07 l 11.9,-48.04 c 0,0 17.9,23.91 -7.14,75 -25.15,51.1 -33.98,167.22 -33.98,167.22 l 175.71,-7.93 47.01,-32.63 43.61,-16.88 c 0,0 -22.77,-78.85 -9.97,-123.26 12.81,-44.29 33.09,-53.7 33.09,-53.7 0,0 -13.49,46 -9.63,72.96 11.55,-44.3 136.85,-64.8 158.14,-184.77 5.33,-30.25 9.07,-56.88 11.67,-79.64"
         style="fill:#272137;fill-opacity:1;fill-rule:nonzero;stroke:none"
         id="path86" />
      <path
         d="m 3314.46,3129.85 c -13.7,-33.64 -20.16,-48.48 -29.56,-55.28 -9.4,-6.91 -86.44,-39.09 -86.44,-39.09 0,0 -139.23,-344.62 -176.05,-419.73 -36.93,-75.22 -119.4,-101.28 -178.66,-8.72 -32.29,50.42 -74.88,112.95 -107.05,159.28 -26.74,38.75 -46.22,66.28 -46.22,66.28 l 27.98,213.66 c 12.92,-7.82 27.87,-24.13 44.07,-45.54 59.25,-78.97 132.21,-228.17 157.69,-281.75 5.89,-12.57 9.29,-19.82 9.29,-19.82 0,0 205.39,329.66 217.97,347.11 12.46,17.33 32.17,53.58 43.39,62.3 11.21,8.62 36.82,42.26 42.26,37.96 5.43,-4.42 2.14,-22.43 -3.97,-32.63 -5.78,-9.4 -20.17,-29.46 -21.87,-32.06 3.52,1.13 59.94,20.28 61.98,24.13 2.26,3.97 13.82,45.54 17.44,48.15 3.51,2.49 3.51,-36.93 3.51,-36.93 0,0 29.68,60.04 33.65,61.06 3.96,1.13 4.42,-14.73 -9.41,-48.38"
         style="fill:#edb9c0;fill-opacity:1;fill-rule:nonzero;stroke:none"
         id="path88" />
      <path
         d="m 3554.6,2382.22 -356.54,-39 -123.29,601.92 356.53,38.99 123.3,-601.91"
         style="fill:#dc4281;fill-opacity:1;fill-rule:nonzero;stroke:none"
         id="path90" />
      <path
         d="m 3074.77,2945.14 -36.31,-3.97 -79.74,-624.12 138.45,34.13 100.89,-7.96 -123.29,601.92"
         style="fill:#b8206e;fill-opacity:1;fill-rule:nonzero;stroke:none"
         id="path92" />
      <path
         d="m 3227.94,2928.09 c 0,-7.12 -5.77,-12.9 -12.89,-12.9 -7.13,0 -12.9,5.78 -12.9,12.9 0,7.12 5.77,12.89 12.9,12.89 7.12,0 12.89,-5.77 12.89,-12.89"
         style="fill:#e1e1e1;fill-opacity:1;fill-rule:nonzero;stroke:none"
         id="path94" />
      <path
         d="m 3332.82,2945.14 c 0,-7.12 -5.78,-12.89 -12.9,-12.89 -7.12,0 -12.89,5.77 -12.89,12.89 0,7.12 5.77,12.9 12.89,12.9 7.12,0 12.9,-5.78 12.9,-12.9"
         style="fill:#e1e1e1;fill-opacity:1;fill-rule:nonzero;stroke:none"
         id="path96" />
      <path
         d="m 3220.87,2929.65 c -6.64,23.07 -10.2,49.08 -10.19,73.6 -0.02,24.25 3.51,47.08 10.6,64.05 3.54,8.49 7.94,15.49 13.05,20.58 5.13,5.09 10.87,8.33 17.61,9.64 3.07,0.59 5.08,3.56 4.49,6.63 -0.59,3.07 -3.56,5.08 -6.63,4.49 -9.11,-1.73 -17.03,-6.29 -23.47,-12.74 -9.68,-9.69 -16.29,-23.43 -20.63,-39.39 -4.33,-15.97 -6.35,-34.26 -6.35,-53.26 0,-25.61 3.68,-52.53 10.64,-76.73 0.86,-3.01 4,-4.74 7.01,-3.88 3,0.87 4.74,4.01 3.87,7.01"
         style="fill:#3e3551;fill-opacity:1;fill-rule:nonzero;stroke:none"
         id="path98" />
      <path
         d="m 3274.37,3061.66 c 12.94,-18.2 23.2,-47.81 29.89,-72.61 3.36,-12.42 5.89,-23.66 7.57,-31.78 0.84,-4.06 1.47,-7.34 1.89,-9.6 0.41,-2.26 0.61,-3.46 0.61,-3.46 0.52,-3.09 3.44,-5.17 6.53,-4.66 3.08,0.52 5.16,3.44 4.65,6.53 -0.02,0.11 -3.44,20.54 -10.32,45.93 -6.93,25.43 -17.14,55.72 -31.57,76.2 -1.81,2.55 -5.34,3.16 -7.9,1.35 -2.55,-1.81 -3.16,-5.34 -1.35,-7.9"
         style="fill:#3e3551;fill-opacity:1;fill-rule:nonzero;stroke:none"
         id="path100" />
      <path
         d="m 2736.7,2766.31 c -26.74,38.75 -46.22,66.28 -46.22,66.28 l 27.98,213.66 c 12.92,-7.82 27.87,-24.13 44.07,-45.54 -22.09,-52.79 -31.05,-157.14 -25.83,-234.4"
         style="fill:#d8939f;fill-opacity:1;fill-rule:nonzero;stroke:none"
         id="path102" />
      <path
         d="m 2943.11,1564.33 c -65.6,-38.63 -145.69,35.69 -222.73,61.63 -3.28,1.13 -6.45,2.04 -9.4,2.95 -2.38,0.67 -4.76,1.35 -7.03,1.92 -22.65,5.78 -37.83,4.76 -52.56,0 -24.93,-8.05 -48.71,-26.96 -106.49,-41.46 -13.71,-3.4 -25.15,-5.67 -34.78,-6.92 -60.61,-7.59 -54.04,23.12 -120.54,28.1 -3.85,0.23 -7.7,0.46 -11.44,0.56 -69.1,1.14 -101.28,-35.22 -101.28,-35.22 0,0 -4.41,12.57 -9.74,54.94 -1.36,10.54 -2.72,23 -4.08,37.61 -2.04,21.19 -4.08,46.9 -5.89,78.05 -0.68,11.79 -1.36,24.25 -2.04,37.62 -1.13,23.45 -2.04,49.4 -2.95,78.06 -0.33,12 -0.68,24.58 -1.01,37.61 -0.12,5.66 -0.23,11.55 -0.34,17.45 -0.46,20.61 -0.46,40.78 0,60.71 0.22,12.69 0.56,25.26 1.13,37.62 1.13,26.73 2.94,52.79 5.21,78.05 1.13,12.69 2.38,25.27 3.74,37.61 2.94,26.96 6.45,53.02 10.19,78.06 1.93,12.8 3.97,25.38 6.01,37.6 7.82,47.03 16.54,90.41 24.47,129.72 6.91,34.44 13.37,65.82 18.35,93.81 1.7,9.39 3.17,18.35 4.53,27.07 2.04,13.82 3.63,26.74 4.42,38.63 5.21,69.79 -11.67,104.91 -28.09,132.44 -11.33,18.92 -22.32,34.21 -25.83,54.6 -5.67,32.97 3.51,74.55 15.4,115.56 l 0.11,0.33 c 6.24,21.41 13.26,42.71 19.15,62.54 17.33,57.89 -12.57,124.39 0,139.8 11.56,14.16 23,2.38 24.81,0.34 l 0.23,-0.34 c 0,0 48.03,10.31 118.05,30.25 13.02,3.73 26.73,7.7 41.12,12.11 36.59,4.42 76.01,1.82 111.36,-3.28 60.39,-8.5 108.41,-24.13 108.41,-24.13 1.14,2.27 3.18,4.19 5.67,5.55 l 0.22,0.12 c 8.62,4.42 21.87,2.03 14.4,-15.75 -45.31,-82.02 -17.34,-277.22 -17.34,-277.22 0,0 0.68,-12.69 0.23,-34.78 v -0.11 c 0,-3.96 -0.12,-8.27 -0.34,-12.91 v -0.12 c -1.02,-35.69 -4.88,-88.93 -15.86,-150.22 -4.31,-24.01 -8.27,-50.07 -10.99,-77.71 -3.06,-31.16 -4.53,-64.13 -2.95,-97.89 2.27,-48.83 10.88,-99.46 29.8,-148.41 4.87,-12.68 10.43,-25.14 16.76,-37.6 7.71,-15.18 16.55,-30.14 26.74,-44.75 7.02,-10.09 13.25,-21.3 18.81,-33.31 5.55,-11.67 10.3,-24.24 14.61,-37.61 7.82,-23.9 13.93,-50.3 19.26,-78.05 2.38,-12.24 4.65,-24.82 6.69,-37.62 4.19,-25.37 7.93,-51.54 11.89,-78.16 1.81,-12.47 3.62,-25.04 5.55,-37.61 1.13,-7.26 2.26,-14.4 3.4,-21.64 3.05,-18.92 6.34,-37.73 10.19,-56.42 2.39,-12.69 5.1,-25.15 8.17,-37.62 6.45,-27.07 14.16,-53.35 23.67,-78.05 4.98,-13.03 10.42,-25.6 16.65,-37.61 12.13,-24.47 26.63,-46.9 44.3,-66.5"
         style="fill:#7b4de7;fill-opacity:1;fill-rule:nonzero;stroke:none"
         id="path104" />
      <path
         d="m 2733.18,2209.28 h -462.1 c 1.93,12.8 3.97,25.38 6.01,37.6 h 439.33 c 4.87,-12.68 10.43,-25.14 16.76,-37.6"
         style="fill:#9a60ed;fill-opacity:1;fill-rule:nonzero;stroke:none"
         id="path106" />
      <path
         d="m 2793.34,2093.61 h -536.19 c 1.13,12.69 2.38,25.27 3.74,37.61 h 517.84 c 5.55,-11.67 10.3,-24.24 14.61,-37.61"
         style="fill:#9a60ed;fill-opacity:1;fill-rule:nonzero;stroke:none"
         id="path108" />
      <path
         d="m 2819.29,1977.94 h -568.48 c 0.22,12.69 0.56,25.26 1.13,37.62 h 560.66 c 2.38,-12.24 4.65,-24.82 6.69,-37.62"
         style="fill:#9a60ed;fill-opacity:1;fill-rule:nonzero;stroke:none"
         id="path110" />
      <path
         d="m 2836.73,1862.17 h -115.8 c -5.94,13.74 -11.17,26.43 -15.63,37.61 h 125.88 c 1.81,-12.47 3.62,-25.04 5.55,-37.61 m -155.19,0 h -184.92 c -0.74,13.42 -1.53,26.04 -2.39,37.61 h 186.82 c -0.1,-11.1 0.05,-23.78 0.49,-37.61"
         style="fill:#9a60ed;fill-opacity:1;fill-rule:nonzero;stroke:none"
         id="path112" />
      <path
         d="m 2445.96,1862.17 h -193.8 v 0 c -0.33,12 -0.68,24.58 -1.01,37.61 h 203.49 c -2.78,-11.67 -5.68,-24.32 -8.68,-37.61"
         style="fill:#9a60ed;fill-opacity:1;fill-rule:nonzero;stroke:none"
         id="path114" />
      <path
         d="m 2858.49,1746.49 h -80.55 c -7.11,12.6 -13.86,25.19 -20.25,37.62 h 92.63 c 2.39,-12.69 5.1,-25.15 8.17,-37.62 m -168.4,0 h -188.31 c -0.52,12.7 -1.02,25.28 -1.54,37.62 h 186.02 c 1.09,-12.39 2.36,-25 3.83,-37.62"
         style="fill:#9a60ed;fill-opacity:1;fill-rule:nonzero;stroke:none"
         id="path116" />
      <path
         d="m 2419.59,1746.49 h -162.44 v 0 c -0.68,11.79 -1.36,24.25 -2.04,37.62 h 173.29 c -2.88,-12.57 -5.82,-25.18 -8.81,-37.62"
         style="fill:#9a60ed;fill-opacity:1;fill-rule:nonzero;stroke:none"
         id="path118" />
      <path
         d="m 2898.81,1630.83 h -40.54 c -10.5,11.74 -20.63,24.38 -30.36,37.61 h 54.25 c 4.98,-13.03 10.42,-25.6 16.65,-37.61"
         style="fill:#9a60ed;fill-opacity:1;fill-rule:nonzero;stroke:none"
         id="path120" />
      <path
         d="m 2710.47,1630.83 h -6.52 v 0 c -10.77,2.75 -19.86,3.96 -28.01,3.96 -8.98,0 -16.83,-1.47 -24.55,-3.96 v 0 h -144.33 c -0.68,12.31 -1.31,24.89 -1.92,37.61 h 196.82 c 2.57,-13.14 5.4,-25.76 8.51,-37.61"
         style="fill:#9a60ed;fill-opacity:1;fill-rule:nonzero;stroke:none"
         id="path122" />
      <path
         d="m 2386.42,1630.83 h -119.3 v 0 c -1.36,10.54 -2.72,23 -4.08,37.61 h 135.91 c -4.13,-13.76 -8.3,-26.44 -12.53,-37.61"
         style="fill:#9a60ed;fill-opacity:1;fill-rule:nonzero;stroke:none"
         id="path124" />
      <path
         d="m 2840.13,1840.53 c -48.37,63.55 -49.96,169.47 -104.11,264.64 -71.49,125.86 -113.52,183.64 -106.26,325.36 7.13,141.83 76.92,178.65 86.66,290.58 -1.02,-35.69 -4.88,-88.93 -15.86,-150.22 -4.31,-24.02 -8.27,-50.07 -10.99,-77.71 -3.06,-31.16 -4.53,-64.13 -2.95,-97.89 3.63,-76.92 22.66,-158.03 73.3,-230.76 50.41,-72.39 60.04,-199.16 80.21,-324"
         style="fill:#6736b6;fill-opacity:1;fill-rule:nonzero;stroke:none"
         id="path126" />
      <path
         d="m 2509.89,2368.56 c 0,0 21.53,-70.58 41.02,-92.9 19.48,-22.2 -24.7,-46.1 -24.7,-46.1 l -67.18,89.49 c 0,0 -9.41,-71.36 -13.03,-89.49 -3.62,-18.13 -66.5,-9.4 -66.5,-9.4 l 16.65,130.84 c 0,0 -32.17,11.33 -70.35,17.56 -9.17,1.59 -17.33,4.42 -24.24,8.04 6.91,34.44 13.37,65.82 18.35,93.81 51.55,-33.09 97.54,-30.48 97.54,-30.48 0,0 45.21,27.98 77.04,25.61 31.83,-2.39 45.54,-13.49 45.54,-13.49 0,0 106.03,13.59 149.54,41.13 -3.06,-31.16 -4.53,-64.13 -2.95,-97.89 -46.1,-11.55 -121.21,-28.99 -148.07,-26.73 -39.76,3.4 -28.66,0 -28.66,0"
         style="fill:#6736b6;fill-opacity:1;fill-rule:nonzero;stroke:none"
         id="path128" />
      <path
         d="m 2605.17,3080.46 c -6.91,-36.48 -24.36,-92.67 -66.62,-103.2 -57.2,-14.28 -87.56,22.99 -85.86,94.37 13.02,3.73 26.73,7.7 41.12,12.12 36.59,4.41 76.01,1.81 111.36,-3.29"
         style="fill:#6736b6;fill-opacity:1;fill-rule:nonzero;stroke:none"
         id="path130" />
      <path
         d="m 2581.94,3077.06 c -8.15,-41.46 -38.06,-81.45 -75.67,-68.99 -22.66,7.59 -27.98,26.4 -28.55,39.99 -0.45,8.84 1.13,15.52 1.13,15.52 0,0 -3.17,26.17 -10.87,55.74 -3.51,13.6 -8.04,27.87 -13.71,40.67 l 118.04,58.79 c -14.72,-24.92 -9.06,-61.4 0,-100.93 1.82,-7.82 3.63,-15.75 5.56,-23.68 v -0.11 l 4.07,-17"
         style="fill:#d8939f;fill-opacity:1;fill-rule:nonzero;stroke:none"
         id="path132" />
      <path
         d="m 2572.31,3117.85 c -26.5,-2.72 -73.18,-6.01 -104.33,1.47 -3.51,13.6 -8.04,27.87 -13.71,40.67 l 118.04,58.79 c -14.72,-24.92 -9.06,-61.4 0,-100.93"
         style="fill:#c27183;fill-opacity:1;fill-rule:nonzero;stroke:none"
         id="path134" />
      <path
         d="m 2620.35,3237.25 c -23.56,-16.31 -30.02,7.59 -30.02,7.59 0,0 -42.37,-117.93 -115.33,-107.74 -73.07,10.09 -94.03,101.17 -94.03,129.04 0,25.94 -7.59,32.06 -12.57,50.08 -0.46,1.35 -0.79,2.71 -1.13,4.19 0,0 42.93,44.75 58.91,91.08 21.63,-29.34 111.36,-79.19 158.71,-83.5 -0.45,-1.35 -0.79,-2.94 -1.01,-4.87 -1.82,-14.84 2.49,-43.61 6.11,-43.27 3.97,0.34 10.08,29.68 27.41,33.65 17.34,3.96 26.4,-60.05 2.95,-76.25"
         style="fill:#edb9c0;fill-opacity:1;fill-rule:nonzero;stroke:none"
         id="path136" />
      <path
         d="m 2733.87,3046.25 c -45.32,-82.02 -17.34,-277.22 -17.34,-277.22 0,0 0.68,-12.69 0.23,-34.78 -52.68,44.3 -36.94,212.87 -3.18,322.08 l 5.67,5.55 0.22,0.12 c 8.62,4.42 21.87,2.03 14.4,-15.75"
         style="fill:#6736b6;fill-opacity:1;fill-rule:nonzero;stroke:none"
         id="path138" />
      <path
         d="m 2309.6,2901.58 c 17.33,57.89 -12.57,124.39 0,139.8 11.56,14.16 23,2.37 24.81,0.34 l 0.23,-0.34 c 4.42,-58.35 13.37,-70.13 -44.19,-202.34 6.24,21.41 13.26,42.71 19.15,62.54"
         style="fill:#6736b6;fill-opacity:1;fill-rule:nonzero;stroke:none"
         id="path140" />
      <path
         d="m 2686.17,2411.27 c -21.64,-16.2 -94.93,-28.21 -140.7,-34.33 -22.43,-3.05 -38.18,-4.65 -38.18,-4.65 0,0 -99.69,-13.02 -181.49,9.75 -7.36,2.04 -14.73,4.31 -21.75,7.02 -11.78,34.67 13.82,70.13 13.82,70.13 0,0 29.57,-13.48 64.12,-24.58 17.11,-5.44 35.35,-10.42 51.89,-12.8 45.31,1.13 95.84,9.85 139.79,19.94 64.02,14.61 114.2,31.72 114.2,31.72 0,0 28.66,-29.92 -1.7,-62.2"
         style="fill:#dc4281;fill-opacity:1;fill-rule:nonzero;stroke:none"
         id="path142" />
      <path
         d="m 2573.67,2441.75 c -0.22,-7.82 -2.83,-16.66 -9.51,-26.07 -9.06,-12.91 -14.38,-26.16 -18.69,-38.74 -22.43,-3.05 -38.18,-4.65 -38.18,-4.65 0,0 -99.69,-13.02 -181.49,9.75 12.24,15.52 33.42,36.82 56.19,52.57 17.11,-5.44 35.35,-10.42 51.89,-12.8 45.31,1.13 95.84,9.85 139.79,19.94"
         style="fill:#c42a70;fill-opacity:1;fill-rule:nonzero;stroke:none"
         id="path144" />
      <path
         d="m 2440.79,2352.02 c 0,0 -0.57,-3.96 -1.59,-10.65 -0.34,-2.72 -0.79,-6 -1.47,-9.63 -2.27,-16.09 -5.78,-39.53 -9.06,-62.31 -4.08,-28.32 -7.93,-55.4 -9.18,-65.03 -2.83,-23.1 -51.09,2.05 -64.23,0.12 -11.22,-1.7 4.87,68.31 24.24,124.85 3.29,9.62 6.69,18.91 10.08,27.41 l 51.21,-4.76"
         style="fill:#dc4281;fill-opacity:1;fill-rule:nonzero;stroke:none"
         id="path146" />
      <path
         d="m 2509.78,2201.23 c -6.34,-7.47 -32.74,39.09 -54.37,87.58 -6.58,14.61 -12.7,29.33 -17.68,42.93 -0.79,2.38 -1.59,4.53 -2.38,6.8 l 3.85,2.83 37.73,27.19 c 0,0 12.46,-19.26 27.75,-42.94 20.4,-31.61 46,-71.03 53.47,-82.13 13.03,-19.26 -39.76,-32.17 -48.37,-42.26"
         style="fill:#dc4281;fill-opacity:1;fill-rule:nonzero;stroke:none"
         id="path148" />
      <path
         d="m 2504.68,2325.62 c -20.5,-5.09 -37.27,-21.52 -49.27,-36.81 -6.58,14.61 -12.7,29.33 -17.68,42.93 -2.27,-16.09 -5.78,-39.53 -9.06,-62.31 -9.29,16.55 -27.87,45.54 -49.17,59.94 3.29,9.62 6.69,18.91 10.08,27.41 l 51.21,-4.76 c 0,0 -0.57,-3.96 -1.59,-10.65 l 37.73,27.19 c 0,0 12.46,-19.26 27.75,-42.94"
         style="fill:#c42a70;fill-opacity:1;fill-rule:nonzero;stroke:none"
         id="path150" />
      <path
         d="m 2495.17,2345.79 c -32.74,-32.85 -125.3,-19.82 -136.4,9.06 -10.99,28.55 3.85,66.84 48.26,68.88 h 0.34 l 1.59,0.12 c 1.92,9.97 9.97,19.48 20.95,27.07 l 0.12,0.12 c 25.03,17.21 65.02,24.35 82.02,3.62 24.58,-29.9 15.97,-76.13 -16.88,-108.87"
         style="fill:#dc4281;fill-opacity:1;fill-rule:nonzero;stroke:none"
         id="path152" />
      <path
         d="m 2457.22,2426.22 c 0,0 23.56,-7.93 19.14,-34.66 0.34,7.37 -3.05,13.25 -8.84,17.79 -13.25,10.76 -38.97,14.5 -60.15,14.38 l 1.59,0.12 c 0.67,3.74 2.37,7.47 4.64,11.1 3.85,5.77 9.52,11.21 16.31,15.97 l 0.12,0.12 c 29.23,4.75 58.45,-7.37 67.74,-28.1 -14.84,14.5 -40.55,3.28 -40.55,3.28"
         style="fill:#c42a70;fill-opacity:1;fill-rule:nonzero;stroke:none"
         id="path154" />
      <path
         d="m 2581.94,3077.06 c -8.15,-41.46 -38.06,-81.45 -75.67,-68.99 -22.66,7.59 -27.98,26.4 -28.55,39.99 48.15,-56.3 84.4,3.51 100.15,46 l 4.07,-17"
         style="fill:#c27183;fill-opacity:1;fill-rule:nonzero;stroke:none"
         id="path156" />
      <path
         d="m 2492.51,1581.25 c -0.01,0 -0.03,0 -0.05,0 -42.39,0.02 -43.65,24.86 -102.88,29.3 -3.85,0.23 -7.7,0.46 -11.44,0.56 2.77,5.85 5.54,12.47 8.28,19.72 h 120.64 c 0.93,-16.73 1.94,-32.96 3.06,-48.38 -6.61,-0.83 -12.42,-1.2 -17.61,-1.2 m 12.63,87.19 h -106.19 c 7.08,23.63 13.99,50.42 20.64,78.05 h 82.19 c 1.05,-25.9 2.14,-52.27 3.36,-78.05 m -4.9,115.67 h -71.84 c 6.15,26.87 12.03,53.57 17.56,78.06 h 50.66 c 1.31,-23.92 2.48,-50.4 3.62,-78.06 m -6.01,115.67 h -39.59 c 10.26,42.99 18.97,72.68 25.5,72.68 0.37,0 0.74,-0.1 1.1,-0.29 5.96,-3.23 9.93,-31.08 12.99,-72.39"
         style="fill:#7243d1;fill-opacity:1;fill-rule:nonzero;stroke:none"
         id="path158" />
      <path
         d="m 2496.62,1862.17 h -50.66 c 3,13.29 5.9,25.94 8.68,37.61 h 39.59 c 0.86,-11.57 1.65,-24.19 2.39,-37.61"
         style="fill:#834dd4;fill-opacity:1;fill-rule:nonzero;stroke:none"
         id="path160" />
      <path
         d="m 2501.78,1746.49 h -82.19 c 2.99,12.44 5.93,25.05 8.81,37.62 h 71.84 c 0.52,-12.34 1.02,-24.92 1.54,-37.62"
         style="fill:#834dd4;fill-opacity:1;fill-rule:nonzero;stroke:none"
         id="path162" />
      <path
         d="m 2507.06,1630.83 h -120.64 c 4.23,11.17 8.4,23.85 12.53,37.61 h 106.19 c 0.61,-12.72 1.24,-25.3 1.92,-37.61"
         style="fill:#834dd4;fill-opacity:1;fill-rule:nonzero;stroke:none"
         id="path164" />
      <path
         d="m 2902.28,1553.41 c -52.01,0 -109.98,43.75 -166.92,66.95 -5,2.04 -10,3.92 -14.98,5.6 -3.28,1.13 -6.45,2.04 -9.4,2.95 v 0 c -0.17,0.63 -0.34,1.28 -0.51,1.92 h 147.8 c 26.18,-29.28 54.62,-53.01 84.84,-66.5 -13.08,-7.7 -26.74,-10.92 -40.83,-10.92 m -74.37,115.03 h -125.95 c -4.86,24.82 -8.79,51.47 -11.87,78.05 h 87.85 c 15.12,-26.75 31.86,-53.43 49.97,-78.05 m -70.22,115.67 h -71.43 c -2.45,27.81 -3.98,54.57 -4.72,78.06 h 39.39 c 10.22,-23.62 22.56,-50.39 36.76,-78.06 m -52.39,115.67 h -24.25 c 0.25,28.28 2.17,46.2 5.39,46.2 0.94,0 1.98,-1.51 3.13,-4.74 2.92,-8.18 8.24,-22.69 15.73,-41.46"
         style="fill:#7243d1;fill-opacity:1;fill-rule:nonzero;stroke:none"
         id="path166" />
      <path
         d="m 2720.93,1862.17 h -39.39 c -0.44,13.83 -0.59,26.51 -0.49,37.61 h 24.25 c 4.46,-11.18 9.69,-23.87 15.63,-37.61"
         style="fill:#834dd4;fill-opacity:1;fill-rule:nonzero;stroke:none"
         id="path168" />
      <path
         d="m 2777.94,1746.49 h -87.85 c -1.47,12.62 -2.74,25.23 -3.83,37.62 h 71.43 c 6.39,-12.43 13.14,-25.02 20.25,-37.62"
         style="fill:#834dd4;fill-opacity:1;fill-rule:nonzero;stroke:none"
         id="path170" />
      <path
         d="m 2858.27,1630.83 h -147.8 c -3.11,11.85 -5.94,24.47 -8.51,37.61 h 125.95 c 9.73,-13.23 19.86,-25.87 30.36,-37.61"
         style="fill:#834dd4;fill-opacity:1;fill-rule:nonzero;stroke:none"
         id="path172" />
      <path
         d="m 2929.51,2699.14 c -17.33,-27.08 -23.1,-61.75 -23.1,-61.75 0,0 -6.58,21.41 13.81,81.57 5.89,-12.57 9.29,-19.82 9.29,-19.82"
         style="fill:#d8939f;fill-opacity:1;fill-rule:nonzero;stroke:none"
         id="path174" />
      <path
         d="m 2096.05,2621.53 c 0,0 -19.48,23.11 -46.33,38.29 0,0 4.3,7.26 12.01,19.83 29.79,-28.32 34.32,-58.12 34.32,-58.12"
         style="fill:#d8939f;fill-opacity:1;fill-rule:nonzero;stroke:none"
         id="path176" />
      <path
         d="m 2446.91,803.711 c -0.34,-47.121 -3.74,-92.672 -3.74,-92.672 h -57.89 l -10.08,47.02 c 0,0 -37.62,-32.629 -78.17,-39.09 -38.86,-6.231 -159.29,-15.168 -162.8,2.051 83.84,-8.731 166.87,6.789 215.93,46.902 30.93,25.367 68.88,35.34 96.75,35.789"
         style="fill:#982d6c;fill-opacity:1;fill-rule:nonzero;stroke:none"
         id="path178" />
      <path
         d="m 2727.98,718.969 c -40.45,6.461 -78.06,39.09 -78.06,39.09 l -10.09,-47.02 h -57.89 c 0,0 -3.4,44.871 -3.84,91.66 69.78,-7.14 86.89,-49.617 180.35,-65.597 58.35,-10.082 100.6,-8.5 125.86,-5.321 3.63,-3.742 5.78,-6.57 6.46,-8.5 6.46,-20.16 -122.23,-10.761 -162.79,-4.312"
         style="fill:#982d6c;fill-opacity:1;fill-rule:nonzero;stroke:none"
         id="path180" />
      <path
         d="m 2334.16,2497.21 c -3.28,0 -6.5,0.09 -9.72,0.27 2.04,13.82 3.63,26.74 4.42,38.63 0.66,8.86 0.97,17.16 0.96,24.96 -0.03,53.62 -14.71,83.44 -29.05,107.48 44.76,-16.98 100.24,-21.15 151.88,-21.15 24.82,0 48.76,0.96 70.19,1.93 21.44,0.96 40.38,1.92 55.21,1.92 19.78,0 32.24,-1.71 33.58,-7.4 5.18,-22.28 -155.74,-146.63 -277.47,-146.64"
         style="fill:#7243d1;fill-opacity:1;fill-rule:nonzero;stroke:none"
         id="path182" />
      <path
         d="m 2584.89,3327.99 c -0.45,-1.35 -0.79,-2.94 -1.01,-4.87 -51.9,-9.17 -153.74,37.05 -153.74,37.05 0,0 -35.23,-32.18 -61.74,-43.95 -0.46,1.35 -0.79,2.71 -1.13,4.19 0,0 42.93,44.75 58.91,91.08 21.63,-29.34 111.36,-79.19 158.71,-83.5"
         style="fill:#d8939f;fill-opacity:1;fill-rule:nonzero;stroke:none"
         id="path184" />
      <path
         d="m 2617.66,3291.09 c -10.84,-2.53 -19.89,-31.82 -7.72,-43.27 -4.09,15.91 -0.12,30.98 7.72,43.27"
         style="fill:#c27183;fill-opacity:1;fill-rule:nonzero;stroke:none"
         id="path186" />
      <path
         d="m 2607.29,3257.95 c 2.67,15.63 7.95,22.41 13.62,19.64 5.66,-2.77 1.45,-13.38 -2.4,-17.59 1.56,4.94 1.92,11.93 -1.94,11.08 -3.86,-0.84 -7.71,-17.47 -6.63,-23.26"
         style="fill:#c27183;fill-opacity:1;fill-rule:nonzero;stroke:none"
         id="path188" />
      <path
         d="m 2473.65,3186.66 c 24.99,1.26 41.55,20.69 41.78,20.87 1.03,1.18 0.9,2.97 -0.29,3.99 -1.18,1.02 -2.97,0.9 -3.99,-0.29 l -0.66,-0.71 c -3.2,-3.42 -17.85,-17.38 -37.1,-18.2 -1.57,-0.07 -2.78,-1.4 -2.7,-2.96 0.07,-1.56 1.39,-2.77 2.96,-2.7"
         style="fill:#d85176;fill-opacity:1;fill-rule:nonzero;stroke:none"
         id="path190" />
      <path
         d="m 2513.29,3283.13 c 0,-5.99 -3.88,-10.84 -8.67,-10.84 -4.8,0 -8.68,4.85 -8.68,10.84 0,6 3.88,10.85 8.68,10.85 4.79,0 8.67,-4.85 8.67,-10.85"
         style="fill:#3e3551;fill-opacity:1;fill-rule:nonzero;stroke:none"
         id="path192" />
      <path
         d="m 2425.8,3278.2 c 0,-5.99 -3.89,-10.85 -8.68,-10.85 -4.79,0 -8.67,4.86 -8.67,10.85 0,5.99 3.88,10.84 8.67,10.84 4.79,0 8.68,-4.85 8.68,-10.84"
         style="fill:#3e3551;fill-opacity:1;fill-rule:nonzero;stroke:none"
         id="path194" />
      <path
         d="m 2489.48,3303.08 0.01,0.01 c 0.41,0.45 5.65,6.52 17.57,6.54 4.14,0 9.13,-0.74 15.07,-2.78 1.48,-0.51 3.09,0.28 3.6,1.76 0.5,1.48 -0.28,3.09 -1.76,3.6 -6.46,2.22 -12.09,3.08 -16.91,3.08 -14.94,0.01 -21.76,-8.32 -22.03,-8.71 -0.97,-1.23 -0.75,-3.01 0.48,-3.98 1.23,-0.96 3.01,-0.75 3.97,0.48"
         style="fill:#3e3551;fill-opacity:1;fill-rule:nonzero;stroke:none"
         id="path196" />
      <path
         d="m 2398.69,3292.18 0.28,0.31 c 1.47,1.66 8.52,8.52 17.94,8.45 4.04,-0.01 8.62,-1.16 13.82,-4.61 1.3,-0.87 3.06,-0.52 3.93,0.78 0.86,1.3 0.51,3.06 -0.79,3.93 -6,4.01 -11.8,5.57 -16.96,5.56 -13.93,-0.11 -22.37,-10.62 -22.59,-10.82 -1,-1.2 -0.82,-2.99 0.38,-3.98 1.21,-1 3,-0.82 3.99,0.38"
         style="fill:#3e3551;fill-opacity:1;fill-rule:nonzero;stroke:none"
         id="path198" />
      <path
         d="m 2448.06,3303.34 c 0.71,-4.62 1.01,-9.23 1.01,-13.77 0,-12.4 -2.26,-24.2 -4.55,-33.98 -2.28,-9.85 -4.64,-17.32 -4.7,-22.33 l 0.02,-0.66 v 0.01 c 0.08,-2.13 1.21,-4.04 2.68,-5.24 2.21,-1.82 5,-2.63 8.03,-3.16 3.04,-0.52 6.36,-0.67 9.55,-0.68 6.19,0 12.18,0.62 13.42,0.61 1.56,0 2.83,1.27 2.83,2.83 0,1.57 -1.27,2.83 -2.83,2.83 -2.03,-0.01 -7.47,-0.6 -13.42,-0.6 -3.99,-0.01 -8.11,0.29 -10.93,1.11 -1.41,0.39 -2.46,0.92 -3,1.39 l -0.68,1.21 v 0.01 l -0.01,0.34 c -0.06,3.22 2.21,11.16 4.55,21.04 2.34,9.96 4.7,22.19 4.7,35.27 0,4.79 -0.31,9.69 -1.07,14.63 -0.24,1.54 -1.68,2.61 -3.23,2.37 -1.55,-0.24 -2.61,-1.68 -2.37,-3.23"
         style="fill:#c27183;fill-opacity:1;fill-rule:nonzero;stroke:none"
         id="path200" />
      <path
         d="m 1716.54,2731.08 -33.42,4.65 13.03,62.87 c 0,0 -7.25,23.23 -15.86,30.48 -8.73,7.13 -28.21,28.88 -26.74,40.44 l 0.57,2.04 c 6.46,-18.47 31.38,-35.23 41.92,-51.55 10.99,-16.99 14.61,-43.73 23.67,-56.75 6.23,-9.18 4.76,-21.98 -3.17,-32.18"
         style="fill:#d8939f;fill-opacity:1;fill-rule:nonzero;stroke:none"
         id="path202" />
      <path
         d="m 1752.57,2772.26 c -2.16,-16.27 -18.8,-40.05 -16.27,-41.18 2.53,-1.13 22.78,29.96 16.27,41.18"
         style="fill:#d8939f;fill-opacity:1;fill-rule:nonzero;stroke:none"
         id="path204" />
      <path
         d="m 4180.36,2059.93 -367.84,-305.58 c -60.63,-50.37 -150.59,-42.05 -200.95,18.57 l -121.99,146.85 c -50.35,60.61 -42.04,150.58 18.58,200.94 l 367.85,305.59 c 22.12,18.37 54.94,15.34 73.32,-6.78 l 237.81,-286.27 c 18.38,-22.12 15.34,-54.94 -6.78,-73.32"
         style="fill:#272137;fill-opacity:1;fill-rule:nonzero;stroke:none"
         id="path206" />
      <path
         d="m 3936.84,2294.64 c 12.04,-28.92 16.6,-59.05 14.5,-88.27 -4.9,-71.18 -49,-136.95 -119.35,-166.23 -63.54,-26.45 -133.21,-16.71 -185.92,19.93 -4.81,3.32 -9.5,6.95 -14.11,10.79 -7.12,5.97 -13.87,12.51 -20.08,19.55 -9.82,11.03 -18.53,23.29 -25.75,36.7 -3.18,5.8 -6,11.76 -8.59,17.98 -41.29,99.19 5.67,213.13 104.87,254.42 44.58,18.57 92.12,19.28 134.85,5.37 14.19,-4.58 27.87,-10.82 40.73,-18.6 7.99,-4.76 15.64,-10.16 22.87,-16.16 4.57,-3.77 8.95,-7.7 13.21,-11.95 16.04,-15.82 29.58,-34.74 39.57,-56.27 1.09,-2.39 2.16,-4.77 3.2,-7.26"
         style="fill:#edba95;fill-opacity:1;fill-rule:nonzero;stroke:none"
         id="path208" />
      <path
         d="m 3876.31,2269.4 c 27.38,-65.78 -3.75,-141.29 -69.53,-168.68 -65.78,-27.38 -141.31,3.75 -168.68,69.53 -27.39,65.79 3.74,141.31 69.53,168.69 65.78,27.38 141.3,-3.74 168.68,-69.54"
         style="fill:#e4887a;fill-opacity:1;fill-rule:nonzero;stroke:none"
         id="path210" />
      <path
         d="m 3769.22,2175.48 6.37,-15.29 12.95,5.39 -6.36,15.3 z m -41.42,99.49 6.04,-14.49 12.96,5.39 -6.04,14.49 z m 59.6,-49.49 -2.45,1.56 c -2.91,1.62 -6.01,2.47 -9.06,2.58 -3.61,0.21 -7.91,-0.2 -12.66,-0.97 l -1.61,-0.24 -0.64,-0.1 -0.66,-0.1 -0.64,-0.09 -0.54,-0.14 c -4.65,-0.82 -8.31,-1.31 -11.16,-1.48 -2.76,-0.19 -5.27,0.31 -7.65,1.46 -2.37,1.16 -4.22,3.32 -5.53,6.46 l -0.02,0.08 -0.85,2.65 c -1.04,3.52 -0.79,6.63 0.69,9.48 1.84,3.43 5.53,6.34 11.16,8.68 1.4,0.58 2.92,1.05 4.47,1.44 l 0.07,0.03 c 1.59,0.31 3.28,0.58 4.96,0.68 3.38,0.12 7.1,-0.14 11.14,-0.95 l 3.35,14.03 c -2.49,0.42 -4.97,0.77 -7.34,0.9 -1.05,0.06 -2.05,0.17 -3.07,0.17 -3.38,0.06 -6.63,-0.17 -9.73,-0.78 -1.51,-0.28 -3,-0.64 -4.44,-1.08 -1.64,-0.42 -3.21,-0.99 -4.74,-1.63 -3,-1.25 -5.69,-2.62 -8.07,-4.13 -3.04,-1.78 -5.46,-3.81 -7.49,-5.95 -3.61,-3.91 -5.7,-8.38 -6.19,-13.4 -0.57,-5.04 0.47,-10.63 3.03,-16.77 l 0.04,-0.08 c 0.49,-1.17 1.04,-2.31 1.57,-3.38 2.35,-4.61 5.08,-7.85 8.28,-9.78 3.93,-2.4 7.9,-3.5 11.96,-3.35 1.68,0.1 3.54,0.18 5.55,0.51 2.86,0.33 6.14,0.92 9.71,1.63 l 0.72,0.12 0.76,0.24 0.32,0.05 0.4,0.08 c 3.86,0.84 7.06,1.22 9.76,1.31 1.36,0.05 2.7,-0.07 3.99,-0.48 1.12,-0.23 2.22,-0.63 3.25,-1.22 2.19,-1.16 3.93,-3.27 5.21,-6.34 2.01,-4.84 1.97,-9.06 0.02,-12.62 -2.03,-3.59 -6,-6.62 -12.01,-9.12 -4.39,-1.83 -8.82,-2.56 -13.24,-2.25 -2.65,0.19 -5.35,0.7 -8.09,1.7 -1.8,0.62 -3.67,1.39 -5.53,2.34 l -4.2,-14.04 -0.04,-0.1 c 3.99,-1.77 8.03,-3.01 12,-3.68 4.04,-0.63 8.09,-0.66 12.19,-0.16 4.05,0.56 6.09,0.82 6.09,0.82 l 0.88,0.36 5.27,2.2 c 2.71,1.12 5.22,2.33 7.47,3.71 3.48,1.96 6.44,4.14 8.73,6.46 3.79,3.9 6.06,8.36 6.76,13.29 0.63,4.91 -0.28,10.37 -2.74,16.3 l -0.07,0.15 c -2.53,6.07 -5.61,10.37 -9.34,12.94"
         style="fill:#edba95;fill-opacity:1;fill-rule:nonzero;stroke:none"
         id="path212" />
      <path
         d="m 4173.02,1870.81 -438.31,-191.25 c -72.24,-31.51 -156.34,1.48 -187.85,73.72 l -76.35,174.97 c -31.53,72.23 1.48,156.34 73.71,187.85 l 438.31,191.25 c 26.36,11.51 57.05,-0.53 68.54,-26.89 l 148.84,-341.1 c 11.51,-26.36 -0.53,-57.05 -26.89,-68.55"
         style="fill:#3e3551;fill-opacity:1;fill-rule:nonzero;stroke:none"
         id="path214" />
      <path
         d="m 4140.03,2077.49 -118.02,-52.66 c -21.87,-9.76 -47.53,0.06 -57.29,21.95 -9.77,21.87 0.06,47.53 21.94,57.29 l 118.02,52.66 c 21.88,9.76 47.54,-0.06 57.29,-21.94 9.77,-21.89 -0.06,-47.54 -21.94,-57.3"
         style="fill:#695599;fill-opacity:1;fill-rule:nonzero;stroke:none"
         id="path216" />
      <path
         d="m 4020.03,2064.68 c 0,-8.39 -6.81,-15.19 -15.19,-15.19 -8.38,0 -15.18,6.8 -15.18,15.19 0,8.39 6.8,15.18 15.18,15.18 8.38,0 15.19,-6.79 15.19,-15.18"
         style="fill:#a18ed8;fill-opacity:1;fill-rule:nonzero;stroke:none"
         id="path218" />
      <path
         d="m 2151.67,4158.8 c 14.34,-26.36 22.83,-54 25.79,-80.93 7.4,-65.6 -17.73,-127.01 -69.9,-155.38 -47.13,-25.62 -104.97,-18.07 -153.39,14.58 -4.42,2.96 -8.79,6.21 -13.12,9.64 -6.71,5.35 -13.22,11.24 -19.35,17.6 -9.7,9.94 -18.69,21.05 -26.66,33.24 -3.5,5.28 -6.73,10.7 -9.81,16.37 -49.18,90.45 -29.41,196.25 44.15,236.25 33.06,17.97 71.35,19.6 108.09,7.66 12.19,-3.92 24.24,-9.39 35.87,-16.29 7.22,-4.22 14.26,-9.03 21.06,-14.41 4.3,-3.38 8.47,-6.9 12.58,-10.72 15.48,-14.24 29.45,-31.39 40.95,-50.99 1.25,-2.17 2.5,-4.35 3.74,-6.62"
         style="fill:#e4887a;fill-opacity:1;fill-rule:nonzero;stroke:none"
         id="path220" />
      <path
         d="m 2169.83,4168.68 c 14.34,-26.37 22.83,-54.01 25.8,-80.93 7.39,-65.61 -17.74,-127.01 -69.91,-155.38 -47.12,-25.62 -104.97,-18.07 -153.39,14.58 -4.42,2.96 -8.79,6.2 -13.12,9.64 -6.71,5.35 -13.21,11.24 -19.35,17.59 -9.69,9.95 -18.69,21.06 -26.65,33.25 -3.5,5.27 -6.74,10.7 -9.82,16.37 -49.18,90.45 -29.41,196.24 44.15,236.24 33.06,17.98 71.36,19.6 108.09,7.67 12.19,-3.92 24.24,-9.39 35.87,-16.3 7.22,-4.21 14.27,-9.02 21.06,-14.41 4.3,-3.37 8.47,-6.9 12.58,-10.71 15.48,-14.24 29.45,-31.39 40.95,-50.99 1.25,-2.17 2.51,-4.35 3.74,-6.62"
         style="fill:#edba95;fill-opacity:1;fill-rule:nonzero;stroke:none"
         id="path222" />
      <path
         d="m 2124.95,4144.24 c 32.62,-59.98 19.51,-130.1 -29.27,-156.63 -48.78,-26.53 -114.76,0.59 -147.38,60.57 -32.62,59.98 -19.51,130.11 29.27,156.63 48.78,26.53 114.77,-0.59 147.38,-60.57"
         style="fill:#e4887a;fill-opacity:1;fill-rule:nonzero;stroke:none"
         id="path224" />
      <path
         d="m 2053.41,4055.64 7.59,-13.94 9.61,5.22 -7.59,13.95 -9.61,-5.23 m -49.33,90.72 7.19,-13.22 9.61,5.22 -7.19,13.22 -9.61,-5.22 m 56.05,-44.34 -2.24,1.38 c -2.6,1.44 -5.25,2.16 -7.73,2.2 -2.95,0.12 -6.35,-0.35 -10.06,-1.15 l -1.27,-0.26 -0.51,-0.1 -0.51,-0.11 -0.5,-0.1 -0.42,-0.13 c -3.62,-0.85 -6.5,-1.37 -8.78,-1.58 -2.19,-0.24 -4.31,0.17 -6.41,1.19 -2.1,1.01 -3.93,2.96 -5.49,5.83 l -0.04,0.06 -1.11,2.43 c -1.4,3.22 -1.69,6.08 -0.95,8.73 0.94,3.2 3.45,5.95 7.63,8.22 1.03,0.56 2.19,1.02 3.39,1.41 l 0.05,0.03 c 1.23,0.32 2.55,0.61 3.89,0.73 2.72,0.18 5.76,0.02 9.15,-0.65 l 0.47,12.97 c -2.08,0.34 -4.13,0.61 -6.07,0.68 l -2.51,0.1 c -2.74,-0.01 -5.32,-0.29 -7.73,-0.92 -1.18,-0.29 -2.32,-0.65 -3.43,-1.07 -1.24,-0.43 -2.42,-0.98 -3.56,-1.6 -2.23,-1.21 -4.18,-2.53 -5.86,-3.97 -2.17,-1.7 -3.8,-3.61 -5.1,-5.62 -2.3,-3.67 -3.27,-7.83 -2.87,-12.46 0.35,-4.65 2.08,-9.76 5.13,-15.37 l 0.03,-0.07 c 0.58,-1.07 1.22,-2.11 1.82,-3.08 2.63,-4.19 5.35,-7.12 8.25,-8.83 3.55,-2.14 6.94,-3.06 10.2,-2.84 1.33,0.12 2.82,0.23 4.4,0.57 2.26,0.37 4.81,0.98 7.58,1.71 l 0.56,0.13 0.58,0.23 0.26,0.05 0.3,0.08 c 2.99,0.84 5.51,1.26 7.68,1.41 1.09,0.06 2.19,-0.02 3.3,-0.37 0.94,-0.18 1.9,-0.53 2.82,-1.06 1.96,-1.02 3.7,-2.93 5.22,-5.73 2.4,-4.4 3.04,-8.29 2.03,-11.61 -1.07,-3.34 -3.8,-6.21 -8.25,-8.64 -3.26,-1.76 -6.71,-2.52 -10.34,-2.33 -2.17,0.12 -4.43,0.53 -6.81,1.4 -1.55,0.54 -3.18,1.21 -4.83,2.04 l -1.16,-13 -0.02,-0.09 c 3.51,-1.55 6.98,-2.61 10.29,-3.14 3.36,-0.51 6.64,-0.46 9.86,0.08 3.19,0.61 4.8,0.88 4.8,0.88 l 0.65,0.36 3.91,2.12 c 2.01,1.1 3.84,2.27 5.45,3.57 2.5,1.88 4.54,3.94 6.02,6.13 2.44,3.66 3.56,7.81 3.34,12.36 -0.28,4.53 -1.88,9.54 -4.82,14.94 l -0.07,0.14 c -3.02,5.54 -6.19,9.43 -9.61,11.72"
         style="fill:#edba95;fill-opacity:1;fill-rule:nonzero;stroke:none"
         id="path226" />
      <path
         d="m 1939.86,3974.18 v 0 c -9.69,9.95 -18.69,21.06 -26.65,33.25 l 29.08,53.08 c 1.8,-4.14 3.8,-8.26 6.01,-12.33 5.18,-9.52 11.19,-18.21 17.84,-25.98 l -26.28,-48.02 m 125.36,229.2 c -12.51,6.24 -25.61,10.08 -38.64,11.24 l 0.02,0.02 0.05,0.03 28.98,53.04 c 12.19,-3.92 24.24,-9.39 35.87,-16.3 l -26.28,-48.03 v 0"
         style="fill:#f2cbb0;fill-opacity:1;fill-rule:nonzero;stroke:none"
         id="path228" />
      <path
         d="m 1966.14,4022.2 c -6.65,7.77 -12.66,16.46 -17.84,25.98 -2.21,4.07 -4.21,8.19 -6.01,12.33 v 0.01 l 84.29,154.1 c 13.03,-1.16 26.13,-5 38.64,-11.24 l -32.6,-59.58 v 0 l -2.51,0.1 c -2.74,-0.01 -5.32,-0.29 -7.73,-0.92 -1.18,-0.29 -2.32,-0.65 -3.43,-1.07 0,0 0,0 0,-0.01 l -5.26,9.68 -9.61,-5.22 5.45,-10.02 v 0 c -2.17,-1.7 -3.8,-3.61 -5.1,-5.62 -2.3,-3.67 -3.27,-7.83 -2.87,-12.46 0.35,-4.65 2.08,-9.76 5.13,-15.37 l 0.03,-0.07 c 0.58,-1.07 1.22,-2.11 1.82,-3.08 v 0 l -42.39,-77.53 -0.01,-0.01 m 48.92,89.48 v 0 c -1.4,3.22 -1.69,6.08 -0.95,8.73 0.94,3.2 3.45,5.95 7.63,8.22 1.03,0.56 2.19,1.02 3.39,1.41 l 0.05,0.03 v 0 l -0.05,-0.03 -10.07,-18.36"
         style="fill:#eba699;fill-opacity:1;fill-rule:nonzero;stroke:none"
         id="path230" />
      <path
         d="m 2008.54,4099.74 v 0 c -0.6,0.97 -1.24,2.01 -1.82,3.08 l -0.03,0.07 c -3.05,5.61 -4.78,10.72 -5.13,15.37 -0.4,4.63 0.57,8.79 2.87,12.46 1.3,2.01 2.93,3.92 5.1,5.62 v 0 l -5.45,10.02 9.61,5.22 5.26,-9.68 c 0,0.01 0,0.01 0,0.01 1.11,0.42 2.25,0.78 3.43,1.07 2.41,0.63 4.99,0.91 7.73,0.92 l 2.51,-0.1 v 0 l -7.44,-13.73 v 0 l -0.05,-0.03 c -1.2,-0.39 -2.36,-0.85 -3.39,-1.41 -4.18,-2.27 -6.69,-5.02 -7.63,-8.22 -0.74,-2.65 -0.45,-5.51 0.95,-8.73 v 0 l -6.52,-11.94"
         style="fill:#f2cbb0;fill-opacity:1;fill-rule:nonzero;stroke:none"
         id="path232" />
      <path
         d="m 1972.33,3946.95 v 0 c -4.42,2.96 -8.79,6.2 -13.12,9.64 l 25.84,47.24 c 4.29,-3.44 8.72,-6.57 13.27,-9.37 l -25.99,-47.51 m 126.83,231.84 c -3.97,3.95 -8.12,7.6 -12.41,10.95 l 0.01,0.02 25.8,47.24 c 4.3,-3.37 8.47,-6.9 12.58,-10.71 l -25.98,-47.5"
         style="fill:#f2cbb0;fill-opacity:1;fill-rule:nonzero;stroke:none"
         id="path234" />
      <path
         d="m 1998.32,3994.46 c -4.55,2.8 -8.98,5.93 -13.27,9.37 l 0.01,0.03 46.33,84.78 c 2.26,0.37 4.81,0.98 7.58,1.71 l 0.56,0.13 0.58,0.23 0.26,0.05 0.3,0.08 c 2.99,0.84 5.51,1.26 7.68,1.41 0.22,0.01 0.44,0.02 0.67,0.02 0.87,0 1.75,-0.11 2.63,-0.39 v 0 l -15.33,-27.97 v 0 c -1.55,0.54 -3.18,1.21 -4.83,2.04 l -1.16,-13 -0.02,-0.09 v 0 l -31.98,-58.39 -0.01,-0.01 m 59.57,108.94 v 0 c -2.6,1.44 -5.25,2.16 -7.73,2.2 -0.32,0.01 -0.65,0.02 -0.98,0.02 -2.71,0 -5.78,-0.45 -9.08,-1.17 l 46.65,85.29 c 4.29,-3.35 8.44,-7 12.41,-10.95 l -0.01,-0.02 -41.26,-75.37"
         style="fill:#eba699;fill-opacity:1;fill-rule:nonzero;stroke:none"
         id="path236" />
      <path
         d="m 2030.31,4052.86 v 0 l 0.02,0.09 1.16,13 c 1.65,-0.83 3.28,-1.5 4.83,-2.04 v 0 l -5.99,-10.96 -0.02,-0.09 m 1.08,35.78 8.71,15.81 c 3.3,0.72 6.37,1.17 9.08,1.17 0.33,0 0.66,-0.01 0.98,-0.02 2.48,-0.04 5.13,-0.76 7.73,-2.2 v 0 l -6.24,-11.52 v 0 c -0.88,0.28 -1.76,0.39 -2.63,0.39 -0.23,0 -0.45,-0.01 -0.67,-0.02 -2.17,-0.15 -4.69,-0.57 -7.68,-1.41 l -0.3,-0.08 -0.26,-0.05 -0.58,-0.23 -0.56,-0.13 c -2.77,-0.73 -5.32,-1.34 -7.58,-1.71"
         style="fill:#f2cbb0;fill-opacity:1;fill-rule:nonzero;stroke:none"
         id="path238" />
      <path
         d="m 3925.02,2721.42 c 12.26,-22.54 19.51,-46.17 22.05,-69.19 6.32,-56.08 -15.17,-108.57 -59.77,-132.82 -40.28,-21.91 -89.72,-15.45 -131.12,12.46 -3.78,2.53 -7.52,5.3 -11.22,8.25 -5.73,4.57 -11.3,9.6 -16.53,15.03 -8.29,8.51 -15.98,18 -22.8,28.42 -2.98,4.51 -5.75,9.14 -8.38,14 -42.04,77.31 -25.15,167.76 37.74,201.96 28.26,15.36 61,16.75 92.4,6.55 10.42,-3.36 20.73,-8.03 30.67,-13.94 6.17,-3.6 12.19,-7.71 18,-12.31 3.68,-2.89 7.24,-5.9 10.76,-9.17 13.23,-12.17 25.17,-26.82 35.01,-43.58 1.06,-1.86 2.13,-3.72 3.19,-5.66"
         style="fill:#e4887a;fill-opacity:1;fill-rule:nonzero;stroke:none"
         id="path240" />
      <path
         d="m 3940.55,2729.87 c 12.25,-22.55 19.51,-46.17 22.05,-69.2 6.32,-56.08 -15.17,-108.57 -59.77,-132.82 -40.28,-21.9 -89.72,-15.45 -131.12,12.46 -3.78,2.53 -7.52,5.31 -11.22,8.25 -5.73,4.57 -11.3,9.6 -16.53,15.03 -8.3,8.51 -15.99,18.01 -22.8,28.43 -2.99,4.5 -5.75,9.14 -8.39,13.99 -42.04,77.32 -25.14,167.76 37.75,201.96 28.26,15.37 60.99,16.76 92.4,6.55 10.42,-3.35 20.72,-8.03 30.66,-13.93 6.17,-3.6 12.2,-7.72 18.01,-12.32 3.67,-2.88 7.24,-5.9 10.75,-9.16 13.24,-12.18 25.17,-26.83 35,-43.59 1.08,-1.86 2.15,-3.71 3.21,-5.65"
         style="fill:#edba95;fill-opacity:1;fill-rule:nonzero;stroke:none"
         id="path242" />
      <path
         d="m 3902.18,2708.97 c 27.88,-51.27 16.68,-111.22 -25.02,-133.9 -41.7,-22.67 -98.12,0.51 -126,51.79 -27.88,51.27 -16.68,111.22 25.03,133.89 41.7,22.68 98.11,-0.51 125.99,-51.78"
         style="fill:#e4887a;fill-opacity:1;fill-rule:nonzero;stroke:none"
         id="path244" />
      <path
         d="m 3841.02,2633.23 6.48,-11.92 8.22,4.47 -6.48,11.92 -8.22,-4.47 m -42.17,77.55 6.14,-11.3 8.22,4.47 -6.14,11.3 -8.22,-4.47 m 47.91,-37.9 -1.91,1.18 c -2.22,1.23 -4.49,1.85 -6.61,1.88 -2.52,0.11 -5.43,-0.3 -8.6,-0.98 l -1.09,-0.22 -0.43,-0.09 -0.43,-0.09 -0.43,-0.09 -0.37,-0.12 c -3.09,-0.72 -5.55,-1.17 -7.5,-1.34 -1.87,-0.21 -3.68,0.13 -5.47,1.01 -1.8,0.87 -3.37,2.53 -4.7,4.98 l -0.04,0.06 -0.95,2.08 c -1.19,2.75 -1.44,5.2 -0.81,7.46 0.8,2.73 2.95,5.08 6.53,7.02 0.87,0.49 1.87,0.88 2.89,1.21 l 0.04,0.03 c 1.06,0.27 2.19,0.52 3.34,0.62 2.32,0.16 4.92,0.01 7.81,-0.55 l 0.41,11.09 c -1.78,0.29 -3.54,0.51 -5.19,0.58 l -2.16,0.08 c -2.33,-0.01 -4.55,-0.25 -6.6,-0.78 -1,-0.25 -1.98,-0.56 -2.93,-0.93 -1.06,-0.35 -2.07,-0.83 -3.04,-1.36 -1.91,-1.03 -3.58,-2.16 -5.01,-3.39 -1.86,-1.45 -3.26,-3.09 -4.36,-4.81 -1.96,-3.14 -2.79,-6.69 -2.45,-10.65 0.3,-3.97 1.78,-8.35 4.38,-13.14 l 0.03,-0.06 c 0.5,-0.91 1.04,-1.8 1.56,-2.63 2.24,-3.58 4.57,-6.09 7.05,-7.55 3.03,-1.82 5.92,-2.61 8.71,-2.43 1.15,0.11 2.42,0.2 3.77,0.49 1.93,0.31 4.11,0.84 6.48,1.46 l 0.48,0.11 0.49,0.2 0.22,0.04 0.26,0.07 c 2.56,0.72 4.7,1.08 6.56,1.2 0.94,0.06 1.87,-0.01 2.82,-0.32 l 2.41,-0.9 c 1.68,-0.86 3.17,-2.49 4.47,-4.89 2.05,-3.77 2.59,-7.09 1.74,-9.93 -0.92,-2.86 -3.26,-5.31 -7.06,-7.38 -2.78,-1.52 -5.74,-2.16 -8.83,-2 -1.86,0.1 -3.79,0.46 -5.82,1.2 -1.34,0.46 -2.73,1.03 -4.14,1.75 l -0.99,-11.12 -0.02,-0.08 c 3.01,-1.32 5.97,-2.23 8.8,-2.69 2.88,-0.43 5.68,-0.38 8.44,0.08 2.72,0.53 4.1,0.75 4.1,0.75 l 0.55,0.31 3.34,1.81 c 1.72,0.94 3.29,1.94 4.66,3.06 2.13,1.6 3.88,3.36 5.15,5.23 2.08,3.13 3.04,6.68 2.85,10.57 -0.24,3.87 -1.61,8.15 -4.12,12.77 l -0.06,0.12 c -2.58,4.73 -5.29,8.06 -8.22,10.02"
         style="fill:#edba95;fill-opacity:1;fill-rule:nonzero;stroke:none"
         id="path246" />
      <path
         d="m 3743.96,2563.59 v 0 c -8.3,8.51 -15.99,18.01 -22.8,28.43 l 24.87,45.37 c 1.53,-3.54 3.24,-7.06 5.13,-10.53 4.43,-8.14 9.57,-15.57 15.26,-22.22 l -22.46,-41.05 m 107.15,195.94 c -10.69,5.33 -21.89,8.62 -33.03,9.6 l 0.02,0.03 0.04,0.02 24.78,45.34 c 10.42,-3.35 20.72,-8.03 30.66,-13.93 l -22.47,-41.06 v 0"
         style="fill:#f2cbb0;fill-opacity:1;fill-rule:nonzero;stroke:none"
         id="path248" />
      <path
         d="m 3766.42,2604.64 c -5.69,6.65 -10.83,14.08 -15.26,22.22 -1.89,3.47 -3.6,6.99 -5.13,10.53 v 0.01 l 72.05,131.73 c 11.14,-0.98 22.34,-4.27 33.03,-9.6 l -27.86,-50.93 v 0 l -2.16,0.08 c -2.33,-0.01 -4.55,-0.25 -6.6,-0.78 -1,-0.25 -1.98,-0.56 -2.92,-0.92 l -4.5,8.27 -8.22,-4.47 4.65,-8.56 c -1.85,-1.45 -3.25,-3.1 -4.35,-4.81 -1.96,-3.14 -2.79,-6.69 -2.45,-10.65 0.3,-3.97 1.78,-8.35 4.38,-13.14 l 0.03,-0.06 c 0.5,-0.91 1.04,-1.8 1.56,-2.63 v 0 l -36.24,-66.28 -0.01,-0.01 m 41.81,76.5 v 0 c -1.19,2.75 -1.44,5.2 -0.81,7.46 0.8,2.73 2.95,5.08 6.53,7.02 0.87,0.49 1.87,0.88 2.89,1.21 l 0.04,0.03 v 0 l -0.04,-0.03 -8.61,-15.69"
         style="fill:#eba699;fill-opacity:1;fill-rule:nonzero;stroke:none"
         id="path250" />
      <path
         d="m 3802.67,2670.93 v 0 c -0.52,0.83 -1.06,1.72 -1.56,2.63 l -0.03,0.06 c -2.6,4.79 -4.08,9.17 -4.38,13.14 -0.34,3.96 0.49,7.51 2.45,10.65 1.1,1.71 2.5,3.36 4.35,4.81 l -4.65,8.56 8.22,4.47 4.5,-8.27 c 0.94,0.36 1.92,0.67 2.92,0.92 2.05,0.53 4.27,0.77 6.6,0.78 l 2.16,-0.08 v 0 l -6.37,-11.74 v 0 l -0.04,-0.03 c -1.02,-0.33 -2.02,-0.72 -2.89,-1.21 -3.58,-1.94 -5.73,-4.29 -6.53,-7.02 -0.63,-2.26 -0.38,-4.71 0.81,-7.46 v 0 l -5.56,-10.21"
         style="fill:#f2cbb0;fill-opacity:1;fill-rule:nonzero;stroke:none"
         id="path252" />
      <path
         d="m 3771.71,2540.31 v 0 c -3.78,2.53 -7.52,5.31 -11.22,8.25 l 22.08,40.39 c 3.68,-2.95 7.47,-5.63 11.36,-8.03 l -22.22,-40.61 m 108.42,198.2 c -3.4,3.37 -6.94,6.5 -10.61,9.36 l 0.01,0.02 22.06,40.38 c 3.67,-2.88 7.24,-5.9 10.75,-9.16 l -22.21,-40.6"
         style="fill:#f2cbb0;fill-opacity:1;fill-rule:nonzero;stroke:none"
         id="path254" />
      <path
         d="m 3793.93,2580.92 c -3.89,2.4 -7.68,5.08 -11.36,8.03 l 0.02,0.02 39.61,72.47 c 1.93,0.31 4.11,0.84 6.48,1.46 l 0.48,0.11 0.49,0.2 0.22,0.04 0.26,0.07 c 2.56,0.72 4.7,1.08 6.56,1.2 0.2,0.01 0.4,0.02 0.6,0.02 0.74,0 1.47,-0.1 2.22,-0.34 v 0 l -13.09,-23.9 v 0 c -1.34,0.46 -2.73,1.03 -4.14,1.75 l -0.99,-11.12 -0.02,-0.08 v 0 l -27.33,-49.91 -0.01,-0.02 m 50.92,93.14 v 0 c -2.22,1.23 -4.49,1.85 -6.61,1.88 -0.27,0.01 -0.55,0.02 -0.83,0.02 -2.32,0 -4.94,-0.39 -7.77,-1 l 39.88,72.91 c 3.67,-2.86 7.21,-5.99 10.61,-9.36 l -0.01,-0.02 -35.27,-64.43"
         style="fill:#eba699;fill-opacity:1;fill-rule:nonzero;stroke:none"
         id="path256" />
      <path
         d="m 3821.27,2630.85 v 0 l 0.02,0.08 0.99,11.12 c 1.41,-0.72 2.8,-1.29 4.14,-1.75 v 0 l -5.13,-9.37 -0.02,-0.08 m 0.93,30.59 7.44,13.52 c 2.83,0.61 5.45,1 7.77,1 0.28,0 0.56,-0.01 0.83,-0.02 2.12,-0.03 4.39,-0.65 6.61,-1.88 v 0 l -5.34,-9.86 c -0.75,0.24 -1.48,0.34 -2.22,0.34 -0.2,0 -0.4,-0.01 -0.6,-0.02 -1.86,-0.12 -4,-0.48 -6.56,-1.2 l -0.26,-0.07 -0.22,-0.04 -0.49,-0.2 -0.48,-0.11 c -2.37,-0.62 -4.55,-1.15 -6.48,-1.46"
         style="fill:#f2cbb0;fill-opacity:1;fill-rule:nonzero;stroke:none"
         id="path258" />
      <path
         d="m 1499.08,3739.94 c 1.95,4.2 3.99,8.42 6.14,12.65 1.42,2.78 0.31,6.19 -2.48,7.61 -2.79,1.42 -6.2,0.31 -7.62,-2.48 -2.21,-4.35 -4.32,-8.69 -6.32,-13.03 -1.31,-2.84 -0.08,-6.2 2.76,-7.52 2.84,-1.31 6.21,-0.07 7.52,2.77 z m 42.96,72.71 c 2.72,3.79 5.51,7.59 8.37,11.38 1.89,2.5 1.39,6.05 -1.11,7.94 -2.5,1.88 -6.05,1.38 -7.93,-1.11 -2.92,-3.88 -5.77,-7.75 -8.54,-11.62 -1.82,-2.54 -1.23,-6.08 1.31,-7.9 2.55,-1.82 6.08,-1.24 7.9,1.31 z m 54.03,65.44 c 3.21,3.43 6.47,6.85 9.78,10.26 2.18,2.25 2.13,5.84 -0.12,8.01 -2.24,2.18 -5.83,2.13 -8.01,-0.12 -3.36,-3.46 -6.67,-6.93 -9.92,-10.41 -2.14,-2.28 -2.02,-5.86 0.27,-8 2.28,-2.14 5.87,-2.02 8,0.26 z m 61.27,59.04 c 3.54,3.1 7.12,6.19 10.75,9.27 2.38,2.02 2.68,5.6 0.65,7.98 -2.03,2.39 -5.6,2.68 -7.98,0.65 -3.67,-3.12 -7.3,-6.24 -10.88,-9.38 -2.35,-2.06 -2.59,-5.63 -0.53,-7.99 2.06,-2.35 5.64,-2.59 7.99,-0.53 z m 66.42,53.36 c 3.79,2.8 7.61,5.6 11.47,8.38 2.54,1.83 3.11,5.37 1.28,7.91 -1.83,2.53 -5.37,3.11 -7.9,1.28 -3.9,-2.81 -7.76,-5.63 -11.59,-8.46 -2.51,-1.86 -3.04,-5.41 -1.18,-7.93 1.86,-2.51 5.4,-3.04 7.92,-1.18 z m 70.33,48.21 c 3.98,2.53 7.99,5.06 12.04,7.56 2.65,1.65 3.47,5.14 1.82,7.8 -1.65,2.66 -5.14,3.48 -7.8,1.83 -4.07,-2.53 -8.12,-5.07 -12.14,-7.62 -2.64,-1.68 -3.42,-5.18 -1.74,-7.82 1.68,-2.65 5.18,-3.42 7.82,-1.75 z m 73.44,43.42 c 4.14,2.27 8.3,4.54 12.49,6.79 2.76,1.47 3.79,4.91 2.32,7.66 -1.48,2.76 -4.92,3.8 -7.67,2.32 -4.23,-2.26 -8.43,-4.55 -12.6,-6.84 -2.74,-1.51 -3.74,-4.95 -2.24,-7.69 1.51,-2.74 4.95,-3.75 7.7,-2.24 z m 75.98,38.84 c 4.27,2.03 8.57,4.04 12.88,6.04 2.84,1.31 4.07,4.68 2.76,7.52 -1.31,2.84 -4.68,4.07 -7.52,2.76 -4.35,-2.01 -8.67,-4.04 -12.97,-6.08 -2.83,-1.35 -4.03,-4.72 -2.69,-7.55 1.34,-2.83 4.72,-4.03 7.54,-2.69 z m 78.12,34.38 c 4.38,1.79 8.78,3.55 13.2,5.3 2.91,1.15 4.33,4.45 3.18,7.36 -1.15,2.9 -4.44,4.33 -7.35,3.18 -4.45,-1.77 -8.88,-3.55 -13.3,-5.34 -2.9,-1.18 -4.29,-4.49 -3.11,-7.39 1.18,-2.9 4.48,-4.29 7.38,-3.11 z m 79.92,29.98 c 4.48,1.54 8.97,3.06 13.48,4.56 2.96,0.99 4.57,4.2 3.57,7.17 -0.99,2.97 -4.19,4.57 -7.16,3.58 -4.54,-1.52 -9.06,-3.05 -13.57,-4.6 -2.96,-1.02 -4.53,-4.24 -3.51,-7.2 1.01,-2.96 4.24,-4.53 7.19,-3.51 z m 81.45,25.55 c 4.55,1.3 9.12,2.57 13.7,3.83 3.01,0.83 4.79,3.94 3.96,6.96 -0.83,3.02 -3.94,4.79 -6.96,3.97 -4.61,-1.27 -9.21,-2.56 -13.8,-3.86 -3.01,-0.86 -4.75,-3.99 -3.9,-7 0.86,-3.01 3.99,-4.75 7,-3.9 z m 82.71,21.09 c 4.61,1.04 9.24,2.07 13.88,3.08 3.06,0.66 5,3.67 4.34,6.73 -0.66,3.06 -3.68,5 -6.73,4.34 -4.68,-1.02 -9.34,-2.05 -13.99,-3.1 -3.05,-0.69 -4.97,-3.72 -4.28,-6.78 0.69,-3.05 3.73,-4.96 6.78,-4.27 z m 83.73,16.54 c 4.67,0.79 9.34,1.56 14.03,2.3 3.09,0.5 5.2,3.4 4.7,6.49 -0.49,3.09 -3.4,5.19 -6.48,4.7 v 0 c -4.73,-0.75 -9.44,-1.53 -14.14,-2.32 -3.09,-0.52 -5.16,-3.44 -4.64,-6.53 0.52,-3.09 3.44,-5.16 6.53,-4.64 z m 84.51,11.88 c 4.7,0.53 9.41,1.04 14.14,1.52 3.11,0.32 5.37,3.1 5.05,6.21 -0.32,3.12 -3.1,5.38 -6.21,5.06 v 0 c -4.76,-0.49 -9.51,-1 -14.25,-1.53 -3.11,-0.35 -5.34,-3.15 -4.99,-6.26 0.34,-3.11 3.15,-5.34 6.26,-5 z m 85.03,7.11 c 4.73,0.26 9.46,0.49 14.2,0.71 3.12,0.14 5.54,2.79 5.4,5.91 -0.14,3.13 -2.79,5.55 -5.91,5.41 v 0 c -4.78,-0.22 -9.55,-0.46 -14.31,-0.72 -3.13,-0.17 -5.52,-2.84 -5.35,-5.97 0.17,-3.12 2.84,-5.51 5.97,-5.34 z m 85.27,2.2 c 4.73,-0.01 9.45,-0.05 14.19,-0.11 3.13,-0.04 5.7,2.46 5.74,5.59 0.04,3.12 -2.47,5.69 -5.59,5.73 v 0.01 c -4.77,0.06 -9.54,0.1 -14.3,0.11 -3.13,0.01 -5.67,-2.52 -5.68,-5.64 -0.01,-3.13 2.51,-5.68 5.64,-5.69 z m 85.2,-2.8 c 4.71,-0.3 9.43,-0.62 14.15,-0.96 3.12,-0.23 5.83,2.11 6.06,5.23 0.23,3.13 -2.12,5.84 -5.24,6.07 v 0 c -4.76,0.34 -9.51,0.66 -14.26,0.96 -3.13,0.2 -5.82,-2.17 -6.01,-5.3 -0.2,-3.12 2.17,-5.81 5.3,-6 z m 84.85,-7.92 c 4.69,-0.58 9.38,-1.18 14.07,-1.82 3.1,-0.42 5.95,1.76 6.37,4.86 0.41,3.1 -1.76,5.95 -4.86,6.37 v 0 c -4.73,0.64 -9.46,1.25 -14.18,1.83 -3.1,0.39 -5.93,-1.82 -6.32,-4.92 -0.38,-3.11 1.82,-5.93 4.92,-6.32 z m 84.2,-13.09 c 4.64,-0.88 9.28,-1.77 13.92,-2.69 3.07,-0.61 6.05,1.38 6.66,4.45 0.61,3.07 -1.39,6.05 -4.46,6.66 -4.67,0.93 -9.35,1.83 -14.03,2.71 -3.07,0.58 -6.03,-1.45 -6.61,-4.53 -0.58,-3.07 1.45,-6.03 4.52,-6.6 z m 83.21,-18.32 c 4.57,-1.16 9.14,-2.34 13.71,-3.55 3.03,-0.8 6.13,1.01 6.93,4.03 0.8,3.02 -1.01,6.12 -4.03,6.92 -4.61,1.22 -9.22,2.42 -13.83,3.58 -3.03,0.77 -6.12,-1.06 -6.88,-4.1 -0.77,-3.03 1.06,-6.11 4.1,-6.88 z m 81.92,-23.53 c 4.5,-1.45 9.01,-2.92 13.51,-4.42 2.97,-0.99 6.17,0.61 7.16,3.58 0.99,2.97 -0.61,6.17 -3.58,7.16 -4.54,1.52 -9.08,3.01 -13.62,4.47 -2.98,0.95 -6.17,-0.68 -7.13,-3.66 -0.95,-2.98 0.68,-6.17 3.66,-7.13 z m 80.31,-28.69 c 4.4,-1.73 8.8,-3.48 13.2,-5.27 2.9,-1.18 6.2,0.22 7.38,3.12 1.17,2.9 -0.22,6.2 -3.12,7.38 -4.44,1.8 -8.87,3.57 -13.31,5.32 -2.91,1.14 -6.2,-0.29 -7.35,-3.2 -1.14,-2.91 0.29,-6.2 3.2,-7.35 z m 78.34,-33.71 c 4.28,-2 8.56,-4.04 12.84,-6.09 2.82,-1.36 6.2,-0.17 7.56,2.65 1.35,2.81 0.17,6.2 -2.65,7.56 -4.32,2.07 -8.63,4.12 -12.95,6.14 -2.83,1.33 -6.21,0.11 -7.53,-2.73 -1.33,-2.83 -0.11,-6.2 2.73,-7.53 z m 76.07,-38.56 c 4.14,-2.27 8.29,-4.56 12.43,-6.88 2.73,-1.53 6.18,-0.56 7.71,2.17 1.53,2.73 0.56,6.18 -2.17,7.71 -4.18,2.34 -8.36,4.65 -12.54,6.94 -2.75,1.5 -6.19,0.49 -7.69,-2.25 -1.5,-2.75 -0.49,-6.19 2.26,-7.69 z m 73.57,-43.17 c 4.03,-2.53 8.04,-5.06 12.02,-7.6 2.64,-1.69 6.14,-0.91 7.82,1.73 1.68,2.63 0.91,6.13 -1.73,7.82 -4,2.56 -8.04,5.11 -12.1,7.65 -2.65,1.66 -6.15,0.86 -7.81,-1.79 -1.66,-2.66 -0.86,-6.15 1.8,-7.81 z m 71.07,-47.17 c 3.89,-2.74 7.75,-5.48 11.59,-8.24 2.54,-1.82 6.08,-1.24 7.9,1.3 1.83,2.54 1.25,6.08 -1.3,7.91 -3.86,2.77 -7.75,5.53 -11.67,8.29 -2.56,1.8 -6.09,1.19 -7.89,-1.37 -1.8,-2.56 -1.19,-6.09 1.37,-7.89 z m 68.29,-51.07 c 3.73,-2.96 7.42,-5.92 11.08,-8.9 2.43,-1.97 6,-1.6 7.97,0.83 1.97,2.43 1.6,6 -0.83,7.97 -3.69,3 -7.41,5.99 -11.17,8.97 -2.45,1.95 -6.01,1.54 -7.96,-0.91 -1.94,-2.45 -1.54,-6.01 0.91,-7.96 z m 65.05,-55.09 c 3.53,-3.19 7.03,-6.38 10.49,-9.58 2.3,-2.13 5.88,-1.98 8.01,0.31 2.12,2.3 1.98,5.89 -0.32,8.01 -3.5,3.23 -7.03,6.45 -10.59,9.66 -2.32,2.1 -5.9,1.92 -8,-0.4 -2.09,-2.32 -1.91,-5.9 0.41,-8 z m 61.29,-59.21 c 3.31,-3.42 6.58,-6.84 9.81,-10.27 2.15,-2.27 5.74,-2.38 8.01,-0.23 2.28,2.15 2.38,5.73 0.23,8.01 -3.27,3.46 -6.57,6.91 -9.9,10.36 -2.18,2.25 -5.76,2.31 -8.01,0.14 -2.25,-2.17 -2.31,-5.76 -0.14,-8.01 z m 57,-63.32 c 3.05,-3.65 6.06,-7.3 9.04,-10.95 1.98,-2.43 5.54,-2.79 7.97,-0.81 2.42,1.98 2.79,5.54 0.81,7.97 -3.01,3.69 -6.05,7.37 -9.13,11.06 -2.01,2.4 -5.58,2.71 -7.98,0.71 -2.4,-2.01 -2.72,-5.58 -0.71,-7.98 z m 52.14,-67.35 c 2.77,-3.86 5.49,-7.73 8.19,-11.6 1.78,-2.57 5.31,-3.2 7.88,-1.42 2.57,1.79 3.2,5.32 1.42,7.89 -2.72,3.91 -5.48,7.81 -8.27,11.72 -1.82,2.55 -5.36,3.13 -7.9,1.31 -2.55,-1.81 -3.14,-5.35 -1.32,-7.9 z m 46.77,-71.17 c 2.45,-4.07 4.87,-8.14 7.24,-12.21 1.58,-2.7 5.05,-3.61 7.75,-2.04 2.7,1.58 3.61,5.05 2.04,7.75 -2.4,4.11 -4.84,8.23 -7.32,12.35 -1.61,2.68 -5.09,3.54 -7.77,1.93 -2.68,-1.61 -3.55,-5.1 -1.94,-7.78 z m 40.92,-74.68 c 2.11,-4.25 4.19,-8.51 6.22,-12.75 1.36,-2.83 4.74,-4.02 7.56,-2.67 2.82,1.36 4.01,4.74 2.66,7.56 -2.06,4.3 -4.15,8.6 -6.29,12.9 -1.39,2.8 -4.79,3.95 -7.59,2.56 -2.8,-1.39 -3.95,-4.79 -2.56,-7.6 z m 34.68,-77.77 c 1.75,-4.42 3.47,-8.83 5.15,-13.23 1.11,-2.92 4.39,-4.39 7.31,-3.27 2.92,1.11 4.39,4.39 3.27,7.31 -1.69,4.45 -3.43,8.9 -5.2,13.37 -1.16,2.91 -4.45,4.33 -7.36,3.17 -2.91,-1.15 -4.33,-4.44 -3.17,-7.35 z m 28.15,-80.38 c 1.38,-4.55 2.73,-9.08 4.04,-13.61 0.87,-3 4.01,-4.73 7.02,-3.86 3,0.87 4.73,4.01 3.86,7.01 -1.32,4.58 -2.68,9.16 -4.08,13.76 -0.92,3 -4.08,4.68 -7.07,3.77 -3,-0.91 -4.68,-4.08 -3.77,-7.07 z m 21.45,-82.43 c 1.01,-4.65 1.98,-9.28 2.92,-13.9 0.62,-3.06 3.61,-5.04 6.67,-4.42 3.07,0.62 5.05,3.61 4.43,6.68 -0.95,4.66 -1.93,9.34 -2.95,14.04 -0.66,3.06 -3.68,5 -6.74,4.34 -3.05,-0.67 -4.99,-3.68 -4.33,-6.74 z m 14.67,-83.92 c 0.64,-4.73 1.23,-9.42 1.79,-14.09 0.37,-3.1 3.19,-5.32 6.3,-4.95 3.1,0.38 5.32,3.2 4.95,6.3 -0.57,4.72 -1.17,9.46 -1.81,14.24 -0.41,3.1 -3.26,5.28 -6.36,4.87 -3.1,-0.42 -5.28,-3.27 -4.87,-6.37 z m 7.89,-84.85 c 0.25,-4.77 0.47,-9.5 0.65,-14.18 0.13,-3.13 2.76,-5.56 5.89,-5.44 3.12,0.12 5.56,2.76 5.43,5.88 -0.18,4.73 -0.4,9.51 -0.66,14.34 -0.16,3.13 -2.83,5.52 -5.95,5.36 -3.13,-0.16 -5.52,-2.83 -5.36,-5.96 z m 1.07,-85.2 c -0.13,-4.81 -0.3,-9.54 -0.49,-14.19 -0.13,-3.12 2.3,-5.76 5.42,-5.89 3.13,-0.13 5.77,2.3 5.9,5.42 0.19,4.7 0.36,9.49 0.5,14.35 0.08,3.13 -2.38,5.73 -5.51,5.82 -3.13,0.09 -5.73,-2.38 -5.82,-5.51 z m -5.93,-84.96 c -0.55,-4.87 -1.12,-9.57 -1.71,-14.09 -0.4,-3.1 1.79,-5.94 4.9,-6.34 3.1,-0.4 5.94,1.79 6.34,4.89 0.59,4.58 1.17,9.33 1.73,14.26 0.35,3.11 -1.88,5.92 -4.99,6.27 -3.11,0.35 -5.92,-1.88 -6.27,-4.99 z m -13.93,-83.84 c -0.54,-2.3 -0.97,-4.04 -1.27,-5.2 -0.29,-1.16 -0.44,-1.71 -0.44,-1.71 -0.83,-3.02 0.95,-6.13 3.97,-6.96 3.01,-0.82 6.13,0.95 6.95,3.97 0.02,0.06 0.7,2.56 1.82,7.31 0.72,3.04 -1.17,6.09 -4.22,6.81 -3.04,0.72 -6.09,-1.17 -6.81,-4.22"
         style="fill:#e4887a;fill-opacity:1;fill-rule:nonzero;stroke:none"
         id="path260" />
    </g>
  </g>
</svg>
